<?xml version="1.0" encoding="UTF-8"?> <svg xmlns="http://www.w3.org/2000/svg" width="137" height="137" viewBox="0 0 137 137" fill="none"> <rect width="137" height="137" rx="68.5" fill="#E3EAF1"></rect> <path d="M92.512 57.4281C93.8057 55.617 94.5993 53.4123 94.5993 51.0063C94.5993 44.9432 89.7434 40.0087 83.7835 40.0087C78.6258 40.0087 74.2529 43.7708 73.2092 48.7228C71.7602 48.1016 70.1733 47.7604 68.5 47.7604C66.844 47.7604 65.257 48.1016 63.8166 48.714C62.7816 43.7008 58.4691 40 53.2165 40C47.2566 40 42.4007 44.9345 42.4007 50.9975C42.4007 53.3423 43.1511 55.5558 44.488 57.4193C38.0882 61.1202 34 68.4869 34 76.7372C34 76.7372 34 76.7372 34 76.746C34 76.7547 34 76.7547 34 76.7635C34 80.5343 40.7189 82.5028 47.5068 83.159C47.0238 85.2063 46.7305 87.3323 46.7305 89.5371V89.5458V89.5546C46.7305 94.384 57.2789 96.7813 67.0424 96.9738C67.5254 97 67.9998 97 68.4828 97C69.0175 97 69.5436 97 70.0352 96.9825C79.7729 96.7813 90.2609 94.3665 90.2609 89.5458C90.2609 87.3498 89.9676 85.215 89.4846 83.1678C96.2898 82.4678 103 80.4993 103 76.7547V76.7285C103 76.7197 103 76.711 103 76.711C102.991 68.4694 98.9117 61.1114 92.512 57.4281ZM83.7835 42.6685C88.303 42.6685 91.9773 46.4043 91.9773 51.0063C91.9773 55.5908 88.303 59.3179 83.7835 59.3179C82.645 59.3179 81.541 59.0292 80.5319 58.583C80.1006 55.1358 78.3066 52.1437 75.6674 50.1839C76.0814 45.9843 79.5659 42.6685 83.7835 42.6685ZM68.5 50.4201C73.7699 50.4201 78.0565 54.7684 78.0565 60.114C78.0565 65.4597 73.7699 69.8167 68.5 69.8167C63.2301 69.8167 58.9435 65.4685 58.9435 60.1228C58.9435 54.7771 63.2301 50.4201 68.5 50.4201ZM53.2165 42.6685C57.4945 42.6685 60.9273 45.9144 61.3585 50.1576C58.702 52.1262 56.8907 55.1446 56.4681 58.618C53.4666 59.8866 49.7665 59.2479 47.4291 56.8856C45.8852 55.3196 45.0314 53.2285 45.0314 51.0063C45.0314 46.413 48.7056 42.6685 53.2165 42.6685ZM36.622 76.7547V76.746C36.622 76.7372 36.622 76.7372 36.622 76.7372C36.622 69.1955 40.4256 62.52 46.3424 59.4141C48.283 61.0414 50.6635 61.9776 53.2165 61.9776C54.3205 61.9776 55.4072 61.7939 56.4509 61.4614C56.701 63.7186 57.5204 65.7922 58.8055 67.5157C53.9065 70.2804 50.215 74.9262 48.283 80.5256C40.0375 79.8256 36.622 77.6121 36.622 76.7547ZM87.6475 89.5458C87.6475 91.0769 81.5841 94.0516 69.9663 94.2965C69.4833 94.314 68.983 94.2965 68.4914 94.314C68.0601 94.3315 67.603 94.314 67.1286 94.2965C55.459 94.0778 49.3525 91.0856 49.3525 89.5458V89.5283C49.3525 80.7968 53.7857 73.0539 60.6685 69.5105C62.7902 71.3391 65.5071 72.4764 68.5 72.4764C71.4929 72.4764 74.2011 71.3303 76.3315 69.5105C83.2143 73.0539 87.6475 80.7968 87.6475 89.5283V89.5371C87.6475 89.5458 87.6475 89.5458 87.6475 89.5458ZM100.378 76.7547C100.378 77.5946 96.9711 79.7906 88.7256 80.5256C86.7936 74.9262 83.1021 70.2804 78.2031 67.5245C79.4883 65.7922 80.3163 63.7274 80.5578 61.4614C81.5928 61.7939 82.6795 61.9776 83.7921 61.9776C86.4141 61.9776 88.786 60.9889 90.6576 59.4141C96.5744 62.5113 100.378 69.1955 100.378 76.7372C100.369 76.746 100.378 76.746 100.378 76.7547Z" fill="#007AFF" stroke="#007AFF"></path> </svg> 