<?xml version="1.0" encoding="UTF-8"?> <svg xmlns="http://www.w3.org/2000/svg" width="137" height="137" viewBox="0 0 137 137" fill="none"> <rect width="137" height="137" rx="68.5" fill="#E3EAF1"></rect> <path d="M44.4048 41.1191H62.4762C62.7787 41.1191 63.0239 40.8739 63.0239 40.5714C63.0239 40.269 62.7787 40.0238 62.4762 40.0238H44.4048C44.1024 40.0238 43.8572 40.269 43.8572 40.5714C43.8572 40.8739 44.1024 41.1191 44.4048 41.1191Z" fill="#007AFF" stroke="#007AFF" stroke-width="1.5"></path> <path d="M62.4762 48.7857C62.7787 48.7857 63.0239 48.5405 63.0239 48.2381C63.0239 47.9357 62.7787 47.6905 62.4762 47.6905H44.4048C44.1024 47.6905 43.8572 47.9357 43.8572 48.2381C43.8572 48.5405 44.1024 48.7857 44.4048 48.7857H62.4762Z" fill="#007AFF" stroke="#007AFF" stroke-width="1.5"></path> <path d="M102.942 102.208L99.1667 94.6565V82.1905C99.1667 80.0768 97.447 78.3572 95.3334 78.3572H90.2352C91.7804 75.1294 92.5953 71.5508 92.5953 67.9524C92.5953 54.8492 82.0818 44.1563 69.0476 43.8641V37.8333C69.0476 35.7197 67.328 34 65.2143 34H41.6666C39.553 34 37.8333 35.7197 37.8333 37.8333V50.2993L34.0577 57.8503C33.9551 58.056 33.9916 58.3038 34.1492 58.4709C34.2547 58.5831 34.4 58.6429 34.5477 58.6429L42.3267 55.3572H47.9559C45.6299 59.1419 44.4047 63.4747 44.4047 67.9524C44.4047 81.0556 54.9182 91.7485 67.9524 92.0407V95.881C67.9524 97.9947 69.672 99.7143 71.7857 99.7143H94.6733L102.452 103C102.6 103 102.745 102.94 102.851 102.828C103.008 102.661 103.045 102.413 102.942 102.208ZM42.2143 54.2619C42.1401 54.2619 42.0667 54.277 41.9986 54.3061L35.7059 57.0029L38.9285 50.4286V37.8333C38.9285 36.3235 40.1569 35.0952 41.6666 35.0952H65.2143C66.7241 35.0952 67.9524 36.3235 67.9524 37.8333V51.5238C67.9524 53.0336 66.7241 54.2619 65.2143 54.2619H48.9596C48.9589 54.2619 48.9583 54.2619 48.9576 54.2619H42.2143ZM68.6625 53.1971C72.9969 53.5467 76.5036 57.1434 76.7047 61.5141C76.8813 65.3535 74.6762 68.3472 70.4953 69.9437C70.2831 70.0247 70.143 70.2283 70.143 70.4553V75.3453C70.143 75.4963 70.0202 75.6191 69.8692 75.6191H67.1311C66.9801 75.6191 66.8573 75.4963 66.8573 75.3453V70.0801C66.8573 69.0748 67.4367 68.1545 68.3334 67.7354C71.5715 66.2219 73.4286 64.1055 73.4286 61.9286C73.4286 58.9661 71.0197 56.51 68.0589 56.4535C66.6069 56.4261 65.2214 56.9817 64.1639 58.0193C63.0913 59.0715 62.4762 60.5319 62.4762 62.0259V64.3929C62.4762 64.5439 62.3534 64.6667 62.2024 64.6667H59.4643C59.3133 64.6667 59.1905 64.5439 59.1905 64.3929V61.9286C59.1905 59.4063 60.2737 57.0238 62.165 55.3572H65.2143C66.7285 55.3572 68.04 54.4747 68.6625 53.1971ZM67.9524 90.9455C55.5221 90.6536 45.5 80.4516 45.5 67.9524C45.5 63.4502 46.7974 59.1021 49.2535 55.3572H60.6125C59.0011 57.1545 58.0952 59.4828 58.0952 61.9286V64.3929C58.0952 65.1478 58.7094 65.7619 59.4643 65.7619H62.2024C62.9573 65.7619 63.5714 65.1478 63.5714 64.3929V62.0259C63.5714 60.8242 64.0669 59.6487 64.931 58.801C65.777 57.9711 66.8784 57.5287 68.0381 57.5485C70.4065 57.5938 72.3333 59.5586 72.3333 61.9286C72.3333 64.3911 69.2116 66.116 67.8697 66.7431C66.5892 67.3415 65.7619 68.6513 65.7619 70.0801V75.3453C65.7619 76.1002 66.3761 76.7143 67.131 76.7143H69.8691C70.6239 76.7143 71.2381 76.1002 71.2381 75.3453V70.8274C75.6048 69.0341 77.9908 65.6393 77.7989 61.4637C77.5764 56.6296 73.7603 52.637 68.9994 52.1285C69.0308 51.9314 69.0476 51.7295 69.0476 51.5237V44.9594C81.4779 45.2513 91.5 55.4533 91.5 67.9524C91.5 71.5646 90.6393 75.155 89.0129 78.3572H71.7857C70.7439 78.3572 69.7983 78.7756 69.1066 79.4524H67.131C66.3761 79.4524 65.7619 80.1485 65.7619 81.004V85.0199C65.7619 85.8755 66.3761 86.5715 67.131 86.5715H67.9524V90.9455ZM67.9524 82.1905V85.4762H67.131C67.0043 85.4762 66.8571 85.2769 66.8571 85.0199V81.004C66.8571 80.747 67.0043 80.5477 67.131 80.5477H68.323C68.0856 81.0459 67.9524 81.6029 67.9524 82.1905ZM94.7857 98.6191H71.7857C70.2759 98.6191 69.0476 97.3908 69.0476 95.881V82.1905C69.0476 80.6807 70.2759 79.4524 71.7857 79.4524H95.3334C96.8432 79.4524 98.0715 80.6807 98.0715 82.1905V94.7858L101.294 101.36L94.7857 98.6191Z" fill="#007AFF" stroke="#007AFF" stroke-width="1.5"></path> <path d="M92.5954 84.381H74.5239C74.2215 84.381 73.9763 84.6262 73.9763 84.9286C73.9763 85.231 74.2215 85.4762 74.5239 85.4762H92.5954C92.8978 85.4762 93.143 85.231 93.143 84.9286C93.143 84.6262 92.8978 84.381 92.5954 84.381Z" fill="#007AFF" stroke="#007AFF" stroke-width="1.5"></path> <path d="M92.5954 92.0477H74.5239C74.2215 92.0477 73.9763 92.2929 73.9763 92.5953C73.9763 92.8977 74.2215 93.1429 74.5239 93.1429H92.5954C92.8978 93.1429 93.143 92.8977 93.143 92.5953C93.143 92.2929 92.8978 92.0477 92.5954 92.0477Z" fill="#007AFF" stroke="#007AFF" stroke-width="1.5"></path> </svg> 