<?xml version="1.0" encoding="UTF-8"?> <svg xmlns="http://www.w3.org/2000/svg" width="137" height="137" viewBox="0 0 137 137" fill="none"> <rect width="137" height="137" rx="68.5" fill="#E3EAF1"></rect> <path d="M102.719 71.2739L96.1895 67.4598C101.474 59.6405 102.058 50.7831 97.7256 43.6597C95.5358 40.0588 92.2284 37.1768 88.1612 35.3253C83.8713 33.3724 78.8194 32.63 73.5517 33.178C73.2798 33.2063 73.0657 33.4175 73.0391 33.6834C73.0124 33.9494 73.1807 34.1972 73.4418 34.2764C84.2524 37.5562 90.8628 42.4112 93.0891 48.7068C95.4123 55.2761 92.205 61.368 90.3939 64.0743L83.4881 60.0404C83.3109 59.9369 83.0904 59.9339 82.9105 60.0328C82.7304 60.1316 82.6183 60.3169 82.6163 60.5188L82.5121 71.1023C80.7025 69.4265 78.6428 68.3281 76.7751 67.3325C76.5347 67.2043 76.2972 67.0778 76.064 66.9519C74.7883 66.2632 73.608 65.4279 73.608 63.9922V63.7251C75.1211 62.8012 76.2798 61.5952 76.8637 60.6769C78.0188 58.8603 78.7948 54.9643 78.7948 50.9823C78.7948 49.8021 78.6058 46.7775 76.8549 44.1893C75.1452 41.6617 72.4282 40.3257 68.9976 40.3257C65.5669 40.3257 62.8499 41.6617 61.1402 44.1893C59.3893 46.7775 59.2003 49.8021 59.2003 50.9823C59.2003 54.9643 59.9763 58.8603 61.1314 60.6769C61.7153 61.5952 62.8741 62.8014 64.3871 63.7251V63.9922C64.3871 65.4279 63.2068 66.2632 61.9312 66.9519C61.6979 67.0778 61.4606 67.2043 61.2201 67.3325C58.0357 69.0302 54.2899 71.0276 52.1813 75.6829C47.7971 72.6526 45.1672 69.0178 44.3636 64.8705C43.5436 60.6388 44.7237 55.7979 47.6051 51.5127L54.5116 55.547C54.6887 55.6504 54.9091 55.6534 55.0892 55.5546C55.2693 55.4559 55.3814 55.2705 55.3834 55.0686L55.5949 33.569C55.597 33.3696 55.4909 33.184 55.3161 33.0811C55.1414 32.9779 54.9243 32.9729 54.7447 33.0678L35.3024 43.3339C35.12 43.4303 35.0046 43.6149 35.0001 43.8175C34.9957 44.0201 35.1027 44.2096 35.2808 44.3135L41.8102 48.1277C37.5806 54.381 36.3298 61.2545 38.2919 67.5439C40.1271 73.4271 44.6681 78.1879 50.7832 80.6654C50.71 81.1771 50.6518 81.7108 50.6084 82.2659C48.9064 82.8971 47.6744 84.6965 47.6744 86.8135C47.6744 89.4546 49.5911 91.6032 51.947 91.6032C52.9808 91.6032 53.964 91.1827 54.7299 90.4442C54.9987 91.2616 55.3391 92.0477 55.7438 92.7957C55.7438 92.7991 55.7428 92.8022 55.7428 92.8054V103.437C55.7428 103.748 56.0008 104 56.3191 104H81.6766C81.9949 104 82.2529 103.748 82.2529 103.437V92.8054C82.2529 92.802 82.2519 92.7989 82.2519 92.7957C82.6566 92.0477 82.9969 91.2616 83.2658 90.4442C84.0317 91.1827 85.015 91.6032 86.0486 91.6032C88.4046 91.6032 90.3212 89.4546 90.3212 86.8135C90.3212 84.6966 89.0892 82.8971 87.3873 82.2659C87.3377 81.6313 87.2682 81.0255 87.1798 80.4474L102.698 72.2536C102.88 72.1573 102.995 71.9726 103 71.77C103.004 71.5673 102.897 71.378 102.719 71.2739ZM62.1104 60.0818C61.0758 58.4546 60.3531 54.7126 60.3531 50.9823C60.3531 49.9039 60.5235 47.1439 62.1016 44.811C63.6089 42.5826 65.9291 41.4527 68.9977 41.4527C72.0662 41.4527 74.3863 42.5826 75.8938 44.811C77.472 47.1441 77.6423 49.9039 77.6423 50.9823C77.6423 54.7126 76.9196 58.4546 75.885 60.0818C74.8526 61.7055 72.0331 63.9923 68.9977 63.9923C65.9623 63.9923 63.1428 61.7055 62.1104 60.0818ZM39.3943 67.2151C37.4849 61.0939 38.802 54.3655 43.1032 48.2694C43.1936 48.141 43.2258 47.9819 43.1919 47.8296C43.1581 47.6773 43.0611 47.5454 42.9244 47.4656L36.7423 43.8544L54.4331 34.5132L54.2406 54.0757L47.7278 50.2715C47.4671 50.1192 47.1304 50.1907 46.9579 50.4352C43.6847 55.0723 42.3265 60.4101 43.2313 65.0801C44.1065 69.5971 46.9701 73.524 51.7426 76.758C51.4346 77.5982 51.1761 78.5163 50.9774 79.5235C45.3067 77.1485 41.1038 72.6949 39.3943 67.2151ZM51.9469 90.4762C50.2266 90.4762 48.8269 88.8331 48.8269 86.8135C48.8269 84.794 50.2265 83.1508 51.9469 83.1508C52.7594 83.1508 53.5414 83.5298 54.1235 84.1968C54.0516 84.7776 54.0137 85.3687 54.0137 85.9683C54.0137 87.0503 54.1354 88.1051 54.3641 89.1209C53.7722 89.9733 52.8825 90.4762 51.9469 90.4762ZM62.2059 82.5338C62.4043 82.9145 62.7986 83.1508 63.2348 83.1508H66.9808C67.3786 83.1508 67.7488 83.3059 68.0234 83.5874C68.2978 83.8687 68.4385 84.2384 68.4198 84.6285C68.3842 85.3673 67.7131 85.9683 66.9237 85.9683H55.1664C55.1664 83.5067 55.8429 81.1968 57.0232 79.2064H60.9295C61.7263 79.2064 62.2921 79.45 62.5226 79.892C62.741 80.311 62.6528 80.8907 62.298 81.3688C62.0444 81.7103 62.0092 82.1566 62.2059 82.5338ZM81.1002 102.873H56.8952V94.5958C59.6232 98.2442 64.0318 100.619 68.9977 100.619C73.9636 100.619 78.3722 98.2442 81.1002 94.5958V102.873ZM58.2438 94.4626C61.3639 94.1271 63.4677 95.3503 63.8344 96.4909C64.0937 97.2974 63.4216 97.8133 62.87 98.0898C61.0723 97.2175 59.4952 95.9743 58.2438 94.4626ZM79.7863 94.4207H71.7131C70.2159 94.4207 68.9978 93.2831 68.9978 91.885C68.9978 90.4868 70.216 89.3492 71.7131 89.3492H82.3915C81.895 91.2283 80.9941 92.9498 79.7863 94.4207ZM82.636 88.2223H71.7131C69.5803 88.2223 67.8452 89.8654 67.8452 91.885C67.8452 93.9045 69.5803 95.5476 71.7131 95.5476H78.7514C76.2487 97.9839 72.8 99.4921 68.9978 99.4921C67.284 99.4921 65.6426 99.1848 64.1266 98.6253C65.0438 97.8703 65.1772 96.909 64.934 96.153C64.329 94.2718 61.3949 92.7833 57.4682 93.4302C56.2148 91.5848 55.412 89.4229 55.2147 87.0953H66.9236C68.343 87.0953 69.5059 86.0349 69.571 84.6814C69.6047 83.9806 69.3513 83.3158 68.8572 82.8094C68.3629 82.3028 67.6964 82.0237 66.9806 82.0237L63.2307 82.0308C63.8469 81.2005 63.969 80.1848 63.5493 79.3801C63.296 78.8944 62.6188 78.0794 60.9294 78.0794H57.7704C60.2839 74.6692 64.3799 72.4445 68.9977 72.4445C76.6244 72.4445 82.8291 78.5112 82.8291 85.9683C82.8291 86.7361 82.7624 87.4889 82.636 88.2223ZM68.9977 71.3175C61.8268 71.3175 55.8174 76.2687 54.3547 82.8581C53.4162 82.1366 52.8611 82.0239 51.7842 82.0285C52.5831 73.2212 57.4602 70.6207 61.7721 68.322C62.0144 68.1929 62.2535 68.0654 62.4886 67.9384C63.9116 67.1701 65.3641 66.1423 65.5247 64.3286C66.5802 64.8073 67.7562 65.1194 68.9978 65.1194C70.2395 65.1194 71.4155 64.8073 72.471 64.3286C72.6316 66.1423 74.0839 67.1703 75.5071 67.9384C75.7421 68.0654 75.9814 68.1929 76.2237 68.322C80.5373 70.6216 85.413 73.2224 86.2109 82.0285C85.7108 82.0239 84.5582 82.0239 83.641 82.8581C82.178 76.2687 76.1686 71.3175 68.9977 71.3175ZM89.1685 86.8135C89.1685 88.8331 87.7689 90.4762 86.0485 90.4762C85.1129 90.4762 84.2232 89.9735 83.6313 89.1209C83.8601 88.1051 83.9817 87.0503 83.9817 85.9683C83.9817 85.3687 83.9438 84.7778 83.8719 84.1968C84.4541 83.5298 85.2362 83.1508 86.0485 83.1508C87.7689 83.1508 89.1685 84.7938 89.1685 86.8135ZM86.9681 79.2781C86.3251 76.2144 85.1218 73.9884 83.6534 72.2837L83.7592 61.5117L90.272 65.316C90.5325 65.4681 90.8693 65.3967 91.0418 65.1523C92.8613 62.5747 96.809 55.7768 94.1786 48.3385C92.0324 42.2702 86.1351 37.4994 76.631 34.1338C76.698 34.1334 76.7656 34.1331 76.8325 34.1331C85.4029 34.1331 92.8528 37.8521 96.735 44.2356C100.923 51.122 100.236 59.7509 94.8965 67.318C94.8061 67.4464 94.7739 67.6056 94.8078 67.7578C94.8417 67.9101 94.9386 68.042 95.0753 68.1219L101.257 71.733L86.9681 79.2781Z" fill="#007AFF" stroke="#007AFF" stroke-width="1.5"></path> </svg> 