<?xml version="1.0" encoding="UTF-8"?> <svg xmlns="http://www.w3.org/2000/svg" width="137" height="137" viewBox="0 0 137 137" fill="none"> <rect width="137" height="137" rx="68.5" fill="#E3EAF1"></rect> <path d="M104.523 68.6181L102.699 63.3621C102.878 62.5265 102.943 61.668 102.883 60.807C102.718 58.4392 101.645 56.3389 99.862 54.8928C98.079 53.4465 95.8021 52.8304 93.4516 53.158C92.2987 53.3186 91.1962 53.6978 90.1905 54.2674C88.9179 53.8306 87.6948 53.7835 86.3518 54.1206C85.9684 54.2168 85.4983 54.3742 84.9648 54.5812C84.7836 50.1532 83.7358 46.8541 82.8861 44.864C82.2049 43.2684 80.9617 41.9985 79.3855 41.288L77.3884 40.388C76.6207 36.1836 73.1436 33 68.9809 33C64.8087 33 61.3255 36.1986 60.5684 40.4172L58.6366 41.2877C57.0604 41.9983 55.8172 43.2682 55.136 44.8637C54.2851 46.8567 53.2354 50.1621 53.0563 54.5996C52.5032 54.3835 52.0161 54.2194 51.6216 54.1203C50.2785 53.7832 49.0554 53.8303 47.7829 54.2671C46.7772 53.6977 45.6747 53.3183 44.5218 53.1577C42.1707 52.8299 39.8944 53.4462 38.1114 54.8925C36.3283 56.3386 35.2556 58.4389 35.0908 60.8067C35.0308 61.6677 35.0951 62.5262 35.2741 63.3618L33.4494 68.6204C32.8317 70.4281 32.8501 71.9661 33.5089 73.6065C34.186 75.2928 36.3885 78.6189 38.7462 81.5158C39.6249 82.5955 40.8157 83.3355 42.1376 83.6537V104.392C42.1376 104.707 42.3933 104.963 42.7087 104.963H95.2529C95.5683 104.963 95.824 104.707 95.824 104.392V83.657C97.1506 83.3403 98.3458 82.5991 99.2271 81.5161C101.585 78.6195 103.787 75.2931 104.464 73.6068C105.123 71.9663 105.142 70.4286 104.523 68.6181ZM93.6094 54.2892C93.9678 54.2393 94.3236 54.2147 94.6757 54.2147C96.3219 54.2147 97.8785 54.7547 99.1427 55.78C100.677 57.0245 101.601 58.838 101.743 60.8864C101.887 62.9496 101.222 65.0025 99.8723 66.6671C98.5223 68.3315 96.6507 69.4054 94.6023 69.6908C92.5685 69.9742 90.6036 69.4447 89.0691 68.2002C87.5346 66.9557 86.6111 65.1422 86.4686 63.0938C86.3251 61.0306 86.9894 58.9777 88.3394 57.3131C89.6895 55.6484 91.5609 54.5747 93.6094 54.2892ZM81.16 70.718L82.5509 64.9827C82.6301 64.6563 82.8476 64.3824 83.1477 64.2314C83.4477 64.0803 83.7972 64.0689 84.1066 64.2L85.5992 64.8325C85.6012 64.8333 85.6033 64.8336 85.6053 64.8343C86.0541 66.5157 86.9967 67.99 88.3496 69.087C89.736 70.2115 91.421 70.8337 93.2072 70.901L94.1737 74.4651C94.2617 74.7893 94.203 75.1341 94.0126 75.411C93.8225 75.6877 93.5216 75.8662 93.1874 75.9003L85.4074 76.696C85.4979 76.3239 85.5438 75.9409 85.5438 75.5493C85.5438 73.0314 83.6168 70.9556 81.16 70.718ZM52.5543 76.6949L44.7862 75.9003C44.4521 75.8662 44.1512 75.6878 43.961 75.411C43.7707 75.1341 43.712 74.7893 43.8 74.4651L44.7665 70.901C46.5526 70.8335 48.2377 70.2115 49.6241 69.087C50.977 67.9898 51.9196 66.5156 52.3684 64.8343C52.3704 64.8335 52.3725 64.8333 52.3745 64.8325L53.867 64.2C54.1762 64.0689 54.5258 64.0803 54.826 64.2314C55.1261 64.3824 55.3436 64.6563 55.4228 64.9827L56.8134 70.7171C54.3512 70.9493 52.4181 73.0275 52.4181 75.5495C52.4181 75.9404 52.4639 76.3231 52.5543 76.6949ZM57.0861 71.8417L57.2851 72.6624C57.8483 74.4625 59.1626 75.3667 61.2414 75.36C63.0246 75.116 64.3219 73.5877 64.3288 71.837H73.6448C73.6518 73.5877 74.949 75.116 76.7323 75.36C78.8087 75.3633 80.1171 74.4518 80.6884 72.6624L80.8873 71.8424C82.8426 71.9458 84.4015 73.5688 84.4015 75.5493C84.4015 76.0804 84.2911 76.591 84.0747 77.0701C83.33 77.4458 82.7439 78.0725 82.4138 78.8349C81.8835 79.1138 81.2915 79.2617 80.6891 79.2617H57.2727C56.6764 79.2617 56.0898 79.1165 55.5633 78.8428C55.2316 78.0716 54.6382 77.4394 53.884 77.0633C53.6696 76.586 53.5603 76.0776 53.5603 75.5493C53.5603 73.5648 55.1255 71.9392 57.0861 71.8417ZM66.7985 59.2478C66.2328 58.7117 65.5157 58.1375 64.727 57.5587H73.2954C72.5067 58.1374 71.7896 58.7115 71.2239 59.2478C70.0295 60.3798 69.8433 62.2477 70.7907 63.5928C71.4256 64.4942 72.4357 64.9814 73.4635 64.9814C73.837 64.9814 74.2126 64.9166 74.5737 64.7845L73.765 70.6947H64.2085L63.397 64.7637C63.7738 64.909 64.1673 64.9813 64.5586 64.9813C65.5863 64.9813 66.5964 64.4942 67.2314 63.5927C68.1789 62.2477 67.9927 60.3798 66.7985 59.2478ZM86.6299 55.2285C87.4472 55.0231 88.1888 54.9853 88.9388 55.1171C88.3993 55.549 87.8997 56.0418 87.4522 56.5935C85.7822 58.3924 84.9726 61.5568 85.3588 63.4902L84.5523 63.1484C83.9336 62.8861 83.2345 62.9088 82.6343 63.2109C82.034 63.5127 81.5991 64.0605 81.4407 64.7134L79.5784 72.3933C79.2837 73.6089 78.1266 74.3969 76.8872 74.2283C75.5596 74.0467 74.6273 72.8186 74.8089 71.491L75.9837 62.9046C76.1945 61.3654 77.0751 60.0197 78.4 59.2127C81.4537 57.3525 84.9919 55.6397 86.6299 55.2285ZM68.9809 34.1423C73.0749 34.1423 76.4056 37.7291 76.4056 42.1381C76.4056 46.5471 73.0749 50.134 68.9809 50.134C64.8869 50.134 61.5562 46.5471 61.5562 42.1381C61.5562 37.7291 64.887 34.1423 68.9809 34.1423ZM54.1959 54.6845C54.3634 50.4001 55.3708 47.223 56.1867 45.3122C56.755 43.981 57.7919 42.9216 59.1062 42.329L60.4236 41.7352C60.4182 41.8688 60.4141 42.0029 60.4141 42.138C60.4141 47.1768 64.2572 51.2761 68.9811 51.2761C73.7049 51.2761 77.548 47.1768 77.548 42.138C77.548 41.9938 77.544 41.8504 77.5378 41.7078L78.9162 42.329C80.2305 42.9214 81.2673 43.9809 81.8357 45.3122C82.6514 47.223 83.6592 50.4001 83.8265 54.6845C83.8314 54.8068 83.8301 54.9312 83.8258 55.056C82.0419 55.8436 79.8417 56.9968 77.8058 58.2372C76.186 59.2238 75.1095 60.8687 74.852 62.7498L74.7629 63.4009L74.5769 63.5177C73.6272 64.1139 72.3744 63.8577 71.7245 62.9349C71.1012 62.0502 71.2239 60.8214 72.0095 60.0768C73.7086 58.4664 76.9104 56.4514 79.1708 55.076C79.4402 54.9121 79.5257 54.5607 79.3618 54.2912C79.1979 54.0217 78.8465 53.9361 78.5771 54.1002C77.4894 54.762 76.1869 55.5703 74.9275 56.4164H63.0947C61.8353 55.5703 60.5329 54.7621 59.4452 54.1002C59.1757 53.9361 58.8242 54.0217 58.6604 54.2912C58.4965 54.5607 58.582 54.9121 58.8515 55.076C61.112 56.4515 64.3138 58.4665 66.0127 60.0768C66.7983 60.8214 66.9208 62.0501 66.2977 62.9349C65.6479 63.8577 64.395 64.1141 63.4454 63.5177L63.2062 63.3677L63.1217 62.7498C62.8642 60.8685 61.7876 59.2238 60.1679 58.2372C58.1511 57.0085 55.973 55.8651 54.198 55.0781C54.1926 54.9452 54.1907 54.8134 54.1959 54.6845ZM51.3436 55.2285C52.9818 55.6397 56.5198 57.3525 59.5735 59.2127C60.8984 60.0197 61.7791 61.3654 61.9898 62.9046L63.1647 71.491C63.3463 72.8186 62.414 74.0466 61.0863 74.2283C59.8472 74.3975 58.69 73.6091 58.3951 72.3933L56.5328 64.7134C56.3745 64.0605 55.9394 63.5127 55.3393 63.2109C54.739 62.9089 54.0398 62.8861 53.4213 63.1484L52.6147 63.4902C52.6258 63.3848 52.6371 63.2794 52.6445 63.1729C52.8083 60.82 52.0543 58.4833 50.5214 56.5935C50.0739 56.0418 49.5743 55.549 49.0347 55.1171C49.7849 54.9852 50.5264 55.0233 51.3436 55.2285ZM36.2305 60.8862C36.3731 58.8379 37.2966 57.0244 38.831 55.7799C40.0952 54.7546 41.6517 54.2146 43.298 54.2146C43.6499 54.2146 44.006 54.2393 44.3643 54.2891C46.4126 54.5745 48.2844 55.6484 49.6344 57.3128C50.9844 58.9774 51.6488 61.0303 51.5053 63.0935C51.3626 65.1419 50.4391 66.9554 48.9048 68.1999C47.3703 69.4444 45.4052 69.9741 43.3715 69.6905C41.3231 69.4051 39.4515 68.3312 38.1015 66.6668C36.7514 65.0024 36.0868 62.9495 36.2305 60.8862ZM39.6323 80.7952C37.3752 78.0216 35.1984 74.7483 34.5691 73.1811C34.0121 71.7944 34.0005 70.5409 34.5295 68.9926L35.8578 65.165C36.2028 65.9508 36.6561 66.6985 37.2143 67.3864C38.747 69.2765 40.8778 70.4965 43.2139 70.8219C43.3404 70.8396 43.4667 70.8535 43.5927 70.8658L42.6976 74.1662C42.5216 74.8147 42.639 75.5042 43.0195 76.0579C43.4 76.6117 44.0016 76.9685 44.67 77.0367L52.5315 77.8409C53.7758 77.9681 54.7143 79.0074 54.7143 80.2585C54.7143 81.5985 53.6242 82.6886 52.2842 82.6886H43.6179C42.0643 82.6885 40.6115 81.9984 39.6323 80.7952ZM94.6819 103.82H43.28V83.8213L52.2842 83.8308C54.254 83.8308 55.8566 82.228 55.8566 80.2582C55.8566 80.2348 55.8537 80.2121 55.8533 80.1889C56.3115 80.3292 56.7895 80.404 57.2727 80.404H80.6891C81.1767 80.404 81.6588 80.328 82.1204 80.1855C82.12 80.2099 82.117 80.2339 82.117 80.2585C82.117 82.2283 83.7196 83.8309 85.6894 83.8309L94.6819 83.8219V103.82ZM103.405 73.1811C102.775 74.7486 100.598 78.0218 98.3414 80.7952C97.3622 81.9984 95.9095 82.6885 94.3559 82.6885H85.6895C84.3495 82.6885 83.2594 81.5982 83.2594 80.2582C83.2594 79.0073 84.1979 77.968 85.4424 77.8407L93.3037 77.0366C93.9721 76.9682 94.5738 76.6114 94.9542 76.0578C95.3347 75.5041 95.452 74.8146 95.2761 74.1661L94.3812 70.8656C96.3954 70.6947 98.6191 69.8513 100.76 67.3864C101.318 66.6984 101.771 65.9506 102.116 65.165L103.443 68.99C103.973 70.5409 103.962 71.7944 103.405 73.1811Z" fill="#007AFF" stroke="#007AFF" stroke-width="1.5"></path> <path d="M50.1336 88.3998H74.1212C74.4366 88.3998 74.6923 88.1441 74.6923 87.8287C74.6923 87.5133 74.4366 87.2576 74.1212 87.2576H50.1336C49.8182 87.2576 49.5625 87.5133 49.5625 87.8287C49.5625 88.1441 49.8182 88.3998 50.1336 88.3998Z" fill="#007AFF" stroke="#007AFF" stroke-width="1.5"></path> <path d="M90.1129 94.1111H54.7027C54.3873 94.1111 54.1316 94.3669 54.1316 94.6823C54.1316 94.9977 54.3873 95.2534 54.7027 95.2534H90.1129C90.4283 95.2534 90.6841 94.9977 90.6841 94.6823C90.6841 94.3669 90.4283 94.1111 90.1129 94.1111Z" fill="#007AFF" stroke="#007AFF" stroke-width="1.5"></path> <path d="M90.1129 100.965H50.1336C49.8182 100.965 49.5625 101.22 49.5625 101.536C49.5625 101.851 49.8182 102.107 50.1336 102.107H90.1129C90.4283 102.107 90.684 101.851 90.684 101.536C90.684 101.22 90.4283 100.965 90.1129 100.965Z" fill="#007AFF" stroke="#007AFF" stroke-width="1.5"></path> </svg> 