<?xml version="1.0" encoding="UTF-8"?> <svg xmlns="http://www.w3.org/2000/svg" width="137" height="137" viewBox="0 0 137 137" fill="none"> <rect width="137" height="137" rx="68.5" fill="#E3EAF1"></rect> <path d="M85.25 65.5C83.5163 65.5 81.8437 65.755 80.25 66.1975V36.75C80.25 34.6825 78.5675 33 76.5 33H44.0038C43.8388 33 43.675 33.0325 43.5212 33.0963C43.3812 33.155 43.2575 33.2413 43.1488 33.3438C43.1388 33.3525 43.125 33.3563 43.1163 33.3663L34.3675 42.1163C34.2513 42.2313 34.16 42.3688 34.0963 42.5225C34.0325 42.675 34 42.8375 34 43V93C34 95.0675 35.6825 96.75 37.75 96.75H71.315C74.75 100.576 79.715 103 85.25 103C95.5887 103 104 94.5887 104 84.25C104 73.9113 95.5887 65.5 85.25 65.5ZM42.75 37.2675V41.75H38.2675L42.75 37.2675ZM37.75 94.25C37.06 94.25 36.5 93.69 36.5 93V44.25H44C44.6912 44.25 45.25 43.6912 45.25 43V35.5H76.5C77.19 35.5 77.75 36.0613 77.75 36.75V67.0762C71.1363 69.9762 66.5 76.5787 66.5 84.25C66.5 87.9275 67.58 91.3525 69.4175 94.25H37.75ZM85.25 100.5C76.29 100.5 69 93.21 69 84.25C69 75.2887 76.29 68 85.25 68C94.21 68 101.5 75.2887 101.5 84.25C101.5 93.21 94.21 100.5 85.25 100.5ZM59 55.5H74C74.6912 55.5 75.25 54.94 75.25 54.25V39.25C75.25 38.5588 74.6912 38 74 38H59C58.3088 38 57.75 38.5588 57.75 39.25V54.25C57.75 54.94 58.3088 55.5 59 55.5ZM60.25 40.5H72.75V53H60.25V40.5ZM39 61.75C39 61.06 39.5588 60.5 40.25 60.5H74C74.6912 60.5 75.25 61.06 75.25 61.75C75.25 62.4412 74.6912 63 74 63H40.25C39.5588 63 39 62.4412 39 61.75ZM64 70.5C64 71.1912 63.4412 71.75 62.75 71.75H40.25C39.5588 71.75 39 71.1912 39 70.5C39 69.81 39.5588 69.25 40.25 69.25H62.75C63.4412 69.25 64 69.81 64 70.5ZM64 79.25C64 79.9412 63.4412 80.5 62.75 80.5H40.25C39.5588 80.5 39 79.9412 39 79.25C39 78.56 39.5588 78 40.25 78H62.75C63.4412 78 64 78.56 64 79.25ZM64 88C64 88.6912 63.4412 89.25 62.75 89.25H40.25C39.5588 89.25 39 88.6912 39 88C39 87.31 39.5588 86.75 40.25 86.75H62.75C63.4412 86.75 64 87.31 64 88ZM39 54.25C39 53.56 39.5588 53 40.25 53H54C54.6912 53 55.25 53.56 55.25 54.25C55.25 54.9412 54.6912 55.5 54 55.5H40.25C39.5588 55.5 39 54.9412 39 54.25ZM39 48C39 47.31 39.5588 46.75 40.25 46.75H54C54.6912 46.75 55.25 47.31 55.25 48C55.25 48.6912 54.6912 49.25 54 49.25H40.25C39.5588 49.25 39 48.6912 39 48ZM94.8838 78.3662C95.3725 78.855 95.3725 79.645 94.8838 80.1338L84.8838 90.1338C84.64 90.3775 84.32 90.5 84 90.5C83.68 90.5 83.36 90.3775 83.1162 90.1338L78.1162 85.1338C77.6275 84.645 77.6275 83.855 78.1162 83.3662C78.605 82.8775 79.395 82.8775 79.8838 83.3662L84 87.4825L93.1162 78.3662C93.605 77.8775 94.395 77.8775 94.8838 78.3662Z" fill="#007AFF" stroke="#007AFF" stroke-width="0.3"></path> </svg> 