<?xml version="1.0" encoding="UTF-8"?> <svg xmlns="http://www.w3.org/2000/svg" width="44" height="44" viewBox="0 0 44 44" fill="none"> <path d="M22 44C9.86914 44 -1.49191e-06 34.1309 -9.61651e-07 22C-9.13372e-07 20.8955 0.895507 20 2 20L18.5933 20L15.6982 17.5186C14.8594 16.8003 14.7617 15.5381 15.4814 14.6982C16.2002 13.8599 17.4629 13.7627 18.3018 14.4814L25.3018 20.4814C25.3184 20.4957 25.3294 20.5143 25.3454 20.5291C25.4259 20.6027 25.498 20.6836 25.5656 20.7694C25.5759 20.7832 25.5885 20.7951 25.5984 20.8091C25.8474 21.1426 26 21.5519 26 22C26 22.448 25.8474 22.8572 25.5986 23.1907C25.5885 23.205 25.5757 23.2172 25.5652 23.2311C25.4977 23.3167 25.4257 23.3974 25.3455 23.4709C25.3295 23.4857 25.3184 23.5043 25.3018 23.5186L18.3018 29.5186C17.4629 30.2373 16.2002 30.1401 15.4814 29.3018C15.1582 28.9243 15 28.4614 15 28.001C15 27.4375 15.2373 26.877 15.6982 26.4814L18.5933 24L4.11798 24C5.117 32.9865 12.7518 40 22 40C31.9248 40 40 31.9253 40 22C40 12.0747 31.9248 4 22 4C17.1318 4 12.5703 5.91308 9.1582 9.38721C8.38379 10.1753 7.11816 10.1865 6.33008 9.4126C5.54297 8.63769 5.53027 7.37109 6.30469 6.58447C10.4756 2.33838 16.0498 -1.22174e-06 22 -9.61651e-07C34.1309 -4.31394e-07 44 9.86914 44 22C44 34.1309 34.1309 44 22 44Z" fill="white"></path> </svg> 