<?xml version="1.0" encoding="UTF-8"?> <!-- Generator: Adobe Illustrator 22.1.0, SVG Export Plug-In . SVG Version: 6.00 Build 0) --> <svg xmlns="http://www.w3.org/2000/svg" xmlns:xlink="http://www.w3.org/1999/xlink" id="Слой_1" x="0px" y="0px" viewBox="0 0 342 272" style="enable-background:new 0 0 342 272;" xml:space="preserve"> <style type="text/css"> .st0{fill:#242343;} .st1{fill:#FFFFFF;stroke:#FFFFFF;stroke-width:2;stroke-miterlimit:10;} </style> <g> <path class="st0" d="M169,25.9c0,0,15.8,20.8,53.2,28.4c0,0-2.3,35.2-19.4,67.3c0,0,22.8-33.9,25.3-76.4l10.2,21.3 c0,0-8,62.1-48.4,91c0,0-10.8,7.6-20.9,11.7c-10.1-4.1-20.9-11.7-20.9-11.7c-40.4-28.8-48.4-91-48.4-91l10.2-21.3 c2.5,42.5,25.3,76.4,25.3,76.4c-17.1-32.1-19.4-67.3-19.4-67.3C153.2,46.7,169,25.9,169,25.9z"></path> <g> <g> <path class="st0" d="M69.4,75.7c0,0,0,0.2,0,0.5c0,0.3,0.1,0.8,0.1,1.5c0.1,0.7,0.1,1.5,0.3,2.4c0.1,0.5,0.1,1,0.2,1.5 c0.1,0.5,0.2,1.1,0.2,1.7c0.4,2.4,0.9,5.4,1.6,8.7c0.7,3.3,1.7,7.1,3,11.1c1.3,4,2.9,8.3,4.8,12.7c1.9,4.4,4.3,9,7,13.5 c2.7,4.5,5.8,9,9.1,13.4c3.4,4.4,7.1,8.6,11.1,12.5c4,4,8.2,7.7,12.5,11.1c4.3,3.4,8.8,6.6,13.2,9.5c1.1,0.7,2.2,1.4,3.3,2.1 l0.4,0.3l0.4,0.2c0.3,0.2,0.6,0.3,0.8,0.5c0.5,0.3,1.1,0.7,1.6,1c0.5,0.3,1.1,0.6,1.6,1c0.5,0.3,1.1,0.6,1.6,0.9 c1.1,0.6,2.1,1.2,3.2,1.8c1.1,0.6,2.1,1.1,3.2,1.7c0.5,0.3,1,0.5,1.5,0.8c0.5,0.3,1,0.5,1.5,0.8c1,0.5,2,1,3,1.5 c0.5,0.2,1,0.5,1.5,0.7c0.5,0.2,1,0.4,1.4,0.7c1,0.4,1.9,0.9,2.8,1.3c0.9,0.4,1.8,0.8,2.7,1.2c0.9,0.4,1.7,0.7,2.6,1.1 c0.8,0.3,1.7,0.7,2.5,1c0.8,0.3,1.6,0.6,2.3,0.9c0.4,0.1,0.7,0.3,1.1,0.4c0.4,0.1,0.7,0.3,1.1,0.4c1.4,0.5,2.7,1,3.8,1.4 c1.1,0.4,2.2,0.8,3.1,1.1c0.9,0.3,1.7,0.6,2.3,0.8c1.2,0.4,1.9,0.7,1.9,0.7l-2.1-2.4c0,0-0.7-0.2-1.9-0.6c-0.3-0.1-0.6-0.2-1-0.3 c-0.2-0.1-0.4-0.1-0.6-0.2c-0.2-0.1-0.4-0.1-0.6-0.2c-0.9-0.3-1.9-0.7-3-1.1c-2.3-0.8-5-1.9-8.1-3.1c-1.5-0.6-3.2-1.3-4.9-2.1 c-1.7-0.7-3.5-1.6-5.4-2.4c-0.9-0.4-1.9-0.9-2.8-1.4c-0.5-0.2-1-0.5-1.5-0.7c-0.5-0.2-1-0.5-1.5-0.7c-1-0.5-2-1-3-1.6 c-0.5-0.3-1-0.5-1.5-0.8c-0.5-0.3-1-0.6-1.5-0.8c-1-0.6-2.1-1.1-3.1-1.7c-1-0.6-2.1-1.2-3.2-1.9c-1.1-0.6-2.1-1.3-3.2-2 c-1.1-0.7-2.2-1.3-3.2-2.1c-1.1-0.7-2.1-1.4-3.2-2.2c-1.1-0.8-2.1-1.5-3.2-2.3c-0.5-0.4-1.1-0.8-1.6-1.2 c-0.5-0.4-1.1-0.8-1.6-1.2c-1.1-0.8-2.1-1.6-3.2-2.5c-4.2-3.4-8.3-7.1-12.2-10.9c-3.9-3.9-7.5-8-10.8-12.3 c-3.3-4.3-6.3-8.7-8.9-13.1c-2.6-4.4-4.9-8.9-6.8-13.2c-1.9-4.3-3.5-8.5-4.7-12.4c-2.5-7.9-3.8-14.6-4.6-19.4 c-0.1-0.6-0.2-1.2-0.3-1.7c-0.1-0.5-0.1-1-0.2-1.5c-0.1-0.9-0.2-1.7-0.3-2.4c-0.1-0.6-0.1-1.1-0.2-1.5c0-0.3,0-0.5,0-0.5 L69.4,75.7z"></path> <g> <path class="st0" d="M146.9,165.5c0.3,0.3,0.6,0.5,1,0.9c0.4,0.3,0.8,0.7,1.2,1.1c0.9,0.8,1.8,1.6,2.7,2.7 c0.5,0.5,0.9,1,1.4,1.6c0.5,0.6,0.9,1.1,1.4,1.8c0.4,0.6,0.8,1.3,1.2,2c0.4,0.7,0.7,1.4,1,2.1c0.4,0.9,0.8,3,1.1,5.2 c0.3,2.2,0.4,4.5,0,6c-0.3-0.2-0.9-0.9-1.8-1.8c-0.9-0.9-1.9-2.2-3-3.5c-1.1-1.3-2.1-2.8-3-4.1c-0.5-0.7-0.9-1.3-1.2-1.9 c-0.4-0.6-0.6-1.2-0.9-1.7c-0.6-1.4-1-3-1.2-4.7c-0.1-0.8-0.1-1.7-0.1-2.6C146.8,167.4,146.8,166.5,146.9,165.5z"></path> <path class="st0" d="M134.6,158.4c0.5,0.5,1.2,1.2,1.9,2c0.8,0.8,1.6,1.7,2.4,2.7c0.2,0.3,0.4,0.5,0.6,0.8 c0.2,0.3,0.4,0.5,0.6,0.8c0.4,0.6,0.8,1.2,1.2,1.8c0.4,0.6,0.7,1.3,1,1.9c0.3,0.7,0.6,1.3,0.9,2.1c0.4,1,0.7,3.1,0.9,5.3 c0.2,2.2,0.2,4.5-0.2,5.9c-0.4-0.3-1-1-1.8-2c-0.4-0.5-0.8-1-1.3-1.6c-0.4-0.6-0.9-1.2-1.4-1.9c-0.2-0.3-0.5-0.7-0.7-1l-0.3-0.5 l-0.3-0.5c-0.4-0.7-0.8-1.4-1.2-2c-0.4-0.7-0.7-1.3-1-1.9c-0.3-0.6-0.5-1.2-0.7-1.7c-0.5-1.5-0.8-3.1-0.9-4.7 C134.1,162.1,134.2,160.3,134.6,158.4z"></path> <path class="st0" d="M123,150.3c0.5,0.5,1.1,1.2,1.7,2c0.3,0.4,0.6,0.9,1,1.3c0.3,0.5,0.7,1,1.1,1.5c0.3,0.5,0.7,1.1,1,1.6 c0.3,0.6,0.7,1.1,1,1.8c0.3,0.6,0.6,1.2,0.9,1.9c0.1,0.3,0.3,0.7,0.4,1c0.1,0.3,0.2,0.7,0.3,1c0.3,1,0.5,3.1,0.6,5.3 c0.1,2.2,0,4.5-0.4,5.8c-0.4-0.4-1.1-1.2-1.9-2.2c-0.7-1-1.5-2.3-2.3-3.6c-0.4-0.6-0.8-1.3-1.1-2c-0.4-0.7-0.7-1.4-1-2 c-0.6-1.3-1.1-2.5-1.4-3.5C122,157.3,122,153.8,123,150.3z"></path> <path class="st0" d="M112.4,140.9c0.4,0.6,0.9,1.3,1.4,2.1c0.6,0.8,1.1,1.8,1.7,2.8c0.6,1,1.1,2.2,1.6,3.4 c0.1,0.3,0.2,0.6,0.3,0.9c0.1,0.3,0.2,0.6,0.3,0.9c0.2,0.6,0.4,1.3,0.5,1.9c0.1,0.5,0.2,1.4,0.2,2.3c0,0.9,0.1,2,0,3.1 c0,1.1-0.1,2.2-0.2,3.2c-0.1,1-0.3,1.9-0.5,2.5c-0.3-0.3-0.6-0.6-0.9-1c-0.3-0.4-0.6-0.9-0.9-1.4c-0.3-0.5-0.7-1.1-1-1.7 c-0.2-0.3-0.3-0.6-0.5-0.9c-0.2-0.3-0.3-0.6-0.5-1c-0.3-0.7-0.6-1.3-0.9-2c-0.1-0.3-0.3-0.7-0.4-1c-0.1-0.3-0.2-0.7-0.4-1 c-0.5-1.3-0.8-2.4-1-3.4c-0.3-1.5-0.4-3.2-0.3-4.8c0.1-0.8,0.2-1.7,0.4-2.5C111.8,142.7,112.1,141.8,112.4,140.9z"></path> <path class="st0" d="M103,130.5c0.2,0.3,0.4,0.6,0.6,1c0.2,0.4,0.4,0.8,0.6,1.2c0.4,0.8,0.9,1.8,1.3,2.9c0.5,1,0.9,2.2,1.2,3.4 c0.4,1.2,0.7,2.4,0.8,3.6c0.1,0.6,0.1,1.4,0.1,2.3c0,1-0.1,2-0.2,3.1c0,0.3-0.1,0.6-0.1,0.8c0,0.3-0.1,0.5-0.1,0.8 c-0.1,0.5-0.1,1.1-0.2,1.5c-0.2,1-0.4,1.8-0.6,2.4c-0.5-0.7-1.1-1.6-1.7-2.7c-0.6-1.1-1.1-2.3-1.6-3.6c-0.5-1.3-0.9-2.6-1.2-3.8 c-0.3-1.2-0.5-2.3-0.6-3.3c-0.2-1.6-0.2-3.2,0.1-4.8C101.5,133.8,102.1,132.1,103,130.5z"></path> <path class="st0" d="M94.8,119c0.3,0.6,0.6,1.3,0.9,2.2c0.3,0.9,0.7,1.8,1,2.9c0.1,0.5,0.3,1.1,0.5,1.6c0.1,0.6,0.3,1.1,0.4,1.7 c0.1,0.3,0.1,0.6,0.2,0.9c0.1,0.3,0.1,0.6,0.1,0.9c0.1,0.6,0.1,1.2,0.2,1.8c0,0.3,0,0.6,0,1.1c0,0.4-0.1,0.8-0.1,1.3 c-0.1,1-0.3,2-0.5,3.1c-0.1,0.5-0.2,1.1-0.3,1.6c-0.1,0.5-0.2,1-0.3,1.5c-0.2,1-0.5,1.8-0.7,2.3c-0.5-0.8-1.1-1.8-1.6-3 c-0.5-1.1-0.9-2.4-1.2-3.6c-0.3-1.2-0.6-2.5-0.8-3.6c-0.2-1.2-0.3-2.2-0.3-3.1c0-0.4,0-0.8,0-1.2c0-0.4,0-0.8,0.1-1.2 c0.1-0.8,0.2-1.6,0.4-2.4C93.1,122.1,93.8,120.5,94.8,119z"></path> <path class="st0" d="M88.1,106.5c0.2,0.6,0.4,1.3,0.7,2.2c0.1,0.4,0.2,0.9,0.3,1.4c0.1,0.5,0.2,1,0.3,1.5c0.4,2,0.7,4.3,0.6,6.5 c0,0.6-0.2,1.4-0.4,2.4c-0.1,0.5-0.2,1-0.3,1.5c-0.1,0.5-0.3,1.1-0.4,1.6c-0.6,2.2-1.2,4.3-1.8,5.3c-0.3-0.5-0.5-1-0.7-1.6 c-0.2-0.5-0.4-1.1-0.6-1.7c-0.2-0.6-0.3-1.2-0.5-1.8c-0.1-0.6-0.3-1.2-0.4-1.8c-0.1-0.6-0.2-1.2-0.3-1.7 c-0.1-0.6-0.1-1.1-0.1-1.7c0-0.5,0-1,0-1.5c0-0.5,0-0.9,0-1.3c0.1-1.6,0.3-3.2,0.9-4.8c0.3-0.8,0.6-1.6,1-2.3 C87,107.9,87.5,107.2,88.1,106.5z"></path> <path class="st0" d="M83,93.2c0.3,1.2,0.7,3,0.9,5c0.2,2,0.3,4.2,0,6.2c-0.1,0.6-0.3,1.5-0.6,2.4c-0.3,0.9-0.6,2-1,3.1 c-0.2,0.5-0.4,1.1-0.6,1.6c-0.2,0.5-0.4,1-0.6,1.4c-0.4,0.9-0.7,1.7-1,2.2c-0.4-1.2-0.8-2.4-1-3.6c-0.1-0.6-0.2-1.2-0.3-1.8 c-0.1-0.6-0.2-1.2-0.2-1.7c0-0.6-0.1-1.1-0.1-1.6c0-0.5,0-1,0-1.5c0-1,0.1-1.9,0.2-2.7c0.3-1.6,0.6-3.3,1.3-4.8 c0.3-0.8,0.7-1.5,1.2-2.2C81.7,94.4,82.3,93.7,83,93.2z"></path> <path class="st0" d="M79.5,79.2c0.1,0.6,0.2,1.3,0.3,2.1c0,0.4,0.1,0.8,0.1,1.3c0,0.5,0,0.9,0,1.4c0,1.9-0.1,4-0.5,5.8 c-0.2,0.6-0.4,1.5-0.8,2.4c-0.2,0.5-0.4,1-0.6,1.5c-0.2,0.5-0.5,1-0.7,1.5c-0.2,0.5-0.5,1-0.7,1.5c-0.2,0.5-0.5,1-0.7,1.4 c-0.4,0.9-0.8,1.6-1.1,2.1c-0.2-0.7-0.3-1.3-0.4-2c-0.1-0.3-0.1-0.6-0.2-0.9c0-0.3-0.1-0.6-0.1-0.9c-0.1-0.6-0.1-1.2-0.1-1.7 c0-0.6,0-1.1,0-1.6c0-0.5,0-1,0.1-1.5c0-0.5,0.1-0.9,0.2-1.4c0.1-0.4,0.1-0.9,0.2-1.3c0.1-0.4,0.2-0.8,0.2-1.1 C75.1,84.5,76.5,81.2,79.5,79.2z"></path> <path class="st0" d="M77.7,64.8c0.1,1.1,0.1,2.8-0.1,4.6c-0.2,1.8-0.5,3.8-1,5.4c-0.2,0.6-0.6,1.5-1.1,2.4 c-0.2,0.5-0.5,0.9-0.8,1.4c-0.3,0.5-0.6,1-0.8,1.5c-0.6,1-1.2,2-1.7,2.8c-0.5,0.8-1,1.5-1.3,2c-0.1-0.8-0.2-1.5-0.2-2.1 c-0.1-0.7-0.1-1.3-0.1-1.9c0-0.6,0-1.2,0-1.7c0-0.5,0.1-1.1,0.1-1.5c0.2-1.9,0.6-3.5,1-4.8C72.9,69.6,74.6,66.4,77.7,64.8z"></path> </g> <path class="st0" d="M69.8,51.2c0.2,1.1,0.4,2.2,0.6,3.3c0.2,1.1,0.4,2.3,0.5,3.5c0.3,2.4,0.4,4.9,0.3,7.8 c-0.1,1.6-0.4,4.2-0.6,6.5c-0.3,2.3-0.5,4.3-0.8,4.7c-0.4-0.6-1-2.6-1.6-5c-0.6-2.3-1-5-1-6.7c-0.2-3.1,0.1-5.7,0.6-7.9 c0.3-1.1,0.6-2.2,0.9-3.2C69,53.2,69.4,52.2,69.8,51.2z"></path> <g> <path class="st0" d="M130.7,191.9c0.8,0.3,1.9,0.8,3.2,1.2c1.3,0.4,2.7,0.8,4.2,1.2c0.4,0.1,0.8,0.2,1.2,0.2 c0.4,0.1,0.8,0.1,1.2,0.2c0.8,0.1,1.6,0.2,2.5,0.2c0.8,0,1.7,0,2.5,0c0.8-0.1,1.7-0.2,2.5-0.4c0.5-0.1,1.5-0.3,2.6-0.6 c1.1-0.3,2.4-0.6,3.7-1c2.6-0.8,5.1-2,6-3.2c-0.3-0.1-1.4-0.2-3-0.4c-0.8-0.1-1.6-0.2-2.6-0.3c-0.9-0.1-1.9-0.2-3-0.3 c-1-0.1-2.1-0.2-3.1-0.3c-1-0.1-2.1-0.2-3-0.3c-1-0.1-1.9-0.1-2.7-0.1c-0.8,0-1.5,0-2.1,0.1c-1.6,0.2-3.3,0.7-4.9,1.3 C134.1,190.1,132.4,190.9,130.7,191.9z"></path> <path class="st0" d="M116.8,182.1c0.8,0.4,1.8,0.9,3,1.5c1.2,0.6,2.6,1.1,4,1.6c1.5,0.5,3.1,0.9,4.7,1.1 c0.8,0.1,1.6,0.2,2.5,0.2c0.8,0,1.7,0,2.5-0.1c0.5-0.1,1.5-0.2,2.6-0.3c0.6-0.1,1.2-0.2,1.8-0.3c0.6-0.1,1.3-0.2,2-0.4 c2.6-0.6,5.2-1.4,6.2-2.6c-0.3-0.1-1.4-0.3-2.8-0.6c-0.7-0.2-1.6-0.3-2.5-0.5c-0.9-0.2-1.9-0.4-2.9-0.6c-1-0.2-2-0.4-3-0.6 c-1-0.2-2-0.4-2.9-0.6c-0.9-0.2-1.8-0.3-2.6-0.4c-0.8-0.1-1.5-0.2-2.1-0.1c-1.6,0-3.3,0.3-5,0.7 C120.4,180.7,118.6,181.3,116.8,182.1z"></path> <path class="st0" d="M103.9,170.9c0.4,0.3,0.8,0.5,1.2,0.8c0.5,0.3,1,0.6,1.5,1c0.6,0.3,1.1,0.7,1.8,1c0.6,0.3,1.3,0.7,2,1 c1.4,0.6,2.9,1.2,4.5,1.6c0.8,0.2,1.6,0.4,2.4,0.5c0.4,0.1,0.8,0.1,1.2,0.1c0.4,0,0.8,0,1.3,0c0.5,0,1.5,0,2.6,0 c1.1,0,2.4-0.1,3.7-0.2c2.6-0.3,5.2-0.8,6.3-1.8c-0.3-0.1-1.3-0.4-2.7-0.9c-0.7-0.2-1.5-0.5-2.4-0.7c-0.9-0.3-1.8-0.6-2.7-0.9 c-0.5-0.1-1-0.3-1.4-0.4l-0.7-0.2c-0.2-0.1-0.5-0.2-0.7-0.2c-1-0.3-1.9-0.6-2.8-0.8c-0.5-0.1-0.9-0.2-1.3-0.4 c-0.4-0.1-0.8-0.2-1.2-0.3c-0.8-0.2-1.5-0.3-2-0.4c-0.8-0.1-1.6-0.1-2.5-0.1c-0.8,0-1.7,0.1-2.6,0.2c-0.9,0.1-1.8,0.3-2.7,0.4 C105.7,170.4,104.8,170.6,103.9,170.9z"></path> <path class="st0" d="M92.1,158.4c0.7,0.6,1.5,1.3,2.5,2.1c1,0.8,2.2,1.6,3.4,2.4c0.6,0.4,1.3,0.8,2,1.1c0.7,0.4,1.4,0.7,2.2,1 c0.7,0.3,1.5,0.6,2.3,0.8c0.8,0.2,1.6,0.4,2.4,0.5c1,0.2,3.6,0.5,6.2,0.5c0.3,0,0.6,0,1,0c0.3,0,0.6,0,1,0 c0.6,0,1.2-0.1,1.8-0.2c1.1-0.2,2.1-0.4,2.7-0.9c-0.3-0.1-1.2-0.6-2.5-1.1c-0.7-0.3-1.4-0.6-2.2-1c-0.8-0.4-1.7-0.7-2.6-1.1 c-0.9-0.4-1.8-0.8-2.7-1.2c-0.9-0.4-1.8-0.8-2.7-1.1c-0.8-0.4-1.7-0.7-2.4-1c-0.7-0.3-1.4-0.5-2-0.6c-1.5-0.4-3.2-0.5-5-0.6 C95.9,158,94,158.1,92.1,158.4z"></path> <path class="st0" d="M81.8,144.5c0.6,0.6,1.3,1.5,2.1,2.4c0.9,0.9,1.9,1.9,3,2.8c1.2,0.9,2.5,1.9,3.9,2.7 c1.4,0.8,2.9,1.4,4.5,1.9c0.5,0.1,1.4,0.4,2.4,0.6c0.5,0.1,1.1,0.3,1.7,0.4c0.3,0.1,0.6,0.1,0.9,0.2c0.3,0.1,0.6,0.1,0.9,0.1 c2.5,0.4,5.1,0.5,6.4-0.2c-0.1-0.1-0.4-0.3-0.8-0.5c-0.4-0.2-0.9-0.6-1.5-0.9c-0.6-0.4-1.3-0.8-2-1.2c-0.7-0.5-1.5-0.9-2.3-1.4 c-1.6-1-3.3-2-4.9-2.9c-1.6-0.9-3-1.7-4-2.1c-1.5-0.6-3.1-1-4.8-1.2c-0.9-0.1-1.7-0.3-2.7-0.3C83.7,144.6,82.8,144.6,81.8,144.5 z"></path> <path class="st0" d="M73.3,129.6c0.9,1.4,2.4,3.6,4.4,5.7c0.2,0.3,0.5,0.5,0.8,0.8c0.3,0.3,0.5,0.5,0.8,0.8 c0.6,0.5,1.2,1,1.8,1.5c0.3,0.2,0.6,0.5,1,0.7c0.3,0.2,0.7,0.4,1,0.7c0.7,0.4,1.4,0.8,2.2,1.1c0.5,0.2,1.3,0.6,2.3,0.9 c1,0.4,2.1,0.8,3.4,1.2c1.2,0.3,2.4,0.6,3.5,0.8c1.1,0.1,2.1,0.1,2.7-0.1c-0.2-0.2-1-0.8-2.1-1.7c-0.5-0.4-1.1-0.9-1.8-1.4 c-0.3-0.3-0.7-0.5-1-0.8c-0.3-0.3-0.7-0.6-1.1-0.9c-1.5-1.2-2.9-2.4-4.4-3.5c-1.4-1.1-2.7-2-3.7-2.6c-1.4-0.8-2.9-1.4-4.5-1.9 C77,130.4,75.2,129.9,73.3,129.6z"></path> <path class="st0" d="M66.7,113.7c0.4,0.7,0.8,1.7,1.4,2.7c0.3,0.5,0.6,1.1,0.9,1.7c0.3,0.6,0.7,1.2,1.1,1.8 c0.8,1.2,1.8,2.4,2.9,3.5c0.6,0.6,1.1,1.1,1.7,1.6c0.6,0.5,1.3,1,2,1.4c0.2,0.1,0.5,0.3,0.9,0.5c0.2,0.1,0.4,0.2,0.6,0.3 c0.2,0.1,0.4,0.2,0.7,0.4c0.9,0.5,2,1.1,3.1,1.6c1.1,0.5,2.3,1,3.3,1.3c0.5,0.2,1,0.3,1.5,0.3c0.5,0.1,0.9,0.1,1.2,0 c-0.2-0.2-0.9-0.9-1.8-1.9c-0.2-0.2-0.5-0.5-0.7-0.8c-0.3-0.3-0.5-0.6-0.8-0.9c-0.6-0.6-1.2-1.2-1.8-1.9c-0.3-0.3-0.6-0.7-0.9-1 c-0.3-0.3-0.6-0.7-0.9-1c-0.3-0.3-0.6-0.7-0.9-1c-0.3-0.3-0.6-0.7-0.9-1c-0.6-0.6-1.2-1.2-1.7-1.7c-0.5-0.5-1-1-1.5-1.3 c-0.6-0.5-1.3-0.9-2-1.3c-0.7-0.4-1.4-0.8-2.2-1.2c-0.4-0.2-0.8-0.4-1.2-0.6c-0.4-0.2-0.8-0.4-1.2-0.6 C68.5,114.4,67.6,114,66.7,113.7z"></path> <path class="st0" d="M62.2,97.2c0.2,0.8,0.5,1.7,0.9,2.8c0.2,0.5,0.4,1.1,0.7,1.7c0.3,0.6,0.5,1.2,0.9,1.9 c0.6,1.3,1.4,2.6,2.3,3.8c0.5,0.6,0.9,1.2,1.5,1.8c0.5,0.6,1.1,1.2,1.7,1.7c0.4,0.3,1,0.9,1.9,1.5c0.8,0.6,1.8,1.4,2.8,2 c1,0.7,2,1.3,3,1.7c1,0.4,1.9,0.7,2.6,0.8c-0.2-0.3-0.7-1-1.4-2.1c-0.7-1.1-1.7-2.4-2.7-3.9c-0.3-0.4-0.5-0.7-0.8-1.1 c-0.3-0.4-0.5-0.7-0.8-1.1c-0.5-0.7-1-1.5-1.5-2.2c-0.5-0.7-1-1.3-1.4-1.9c-0.5-0.6-0.9-1.1-1.3-1.5 C68.3,101.1,65.5,99.1,62.2,97.2z"></path> <path class="st0" d="M59.8,80.4c0.1,0.8,0.3,1.7,0.5,2.8c0.3,1.1,0.5,2.4,1,3.7c0.4,1.3,1,2.7,1.7,4c0.7,1.3,1.6,2.7,2.6,3.9 c0.3,0.4,0.9,1,1.6,1.8c0.7,0.7,1.5,1.6,2.4,2.4c0.9,0.8,1.8,1.5,2.7,2.1c0.9,0.6,1.7,1,2.4,1.2c-0.1-0.3-0.5-1.1-1.1-2.2 c-0.6-1.1-1.3-2.6-2.1-4.1c-0.4-0.8-0.8-1.6-1.2-2.3c-0.4-0.8-0.8-1.6-1.2-2.3c-0.8-1.5-1.5-2.8-2.2-3.7 C65.2,85.2,62.7,82.8,59.8,80.4z"></path> <path class="st0" d="M59.5,63.4c0,1.5,0.1,3.9,0.6,6.6c0.5,2.7,1.4,5.7,3.1,8.4c0.5,0.9,1.8,2.8,3.3,4.6c1.5,1.8,3.2,3.4,4.5,4 c-0.1-0.3-0.3-1.1-0.7-2.3c-0.4-1.2-0.9-2.7-1.4-4.3c-0.3-0.8-0.5-1.6-0.8-2.4c-0.3-0.8-0.5-1.6-0.8-2.4 c-0.3-0.8-0.5-1.5-0.8-2.1c-0.3-0.7-0.5-1.2-0.8-1.7C64.1,69,62,66.3,59.5,63.4z"></path> </g> </g> <g> <path class="st0" d="M267.5,75.6c0,0,0,0.2,0,0.5c0,0.3-0.1,0.8-0.2,1.5c-0.1,0.6-0.2,1.4-0.3,2.4c-0.1,0.5-0.1,1-0.2,1.5 c-0.1,0.5-0.2,1.1-0.3,1.7c-0.4,2.4-0.9,5.3-1.6,8.6c-0.7,3.3-1.7,7-3,11c-1.3,4-2.9,8.2-4.8,12.5c-2,4.4-4.3,8.8-6.9,13.3 c-2.7,4.5-5.7,8.9-9.1,13.2c-3.4,4.3-7.1,8.4-11,12.3c-3.9,3.9-8.1,7.6-12.4,11c-4.3,3.4-8.7,6.5-13.1,9.3 c-1.1,0.7-2.2,1.4-3.3,2.1l-0.4,0.3l-0.4,0.2c-0.3,0.2-0.5,0.3-0.8,0.5c-0.5,0.3-1.1,0.6-1.6,1c-0.5,0.3-1.1,0.6-1.6,0.9 c-0.5,0.3-1.1,0.6-1.6,0.9c-1.1,0.6-2.1,1.2-3.2,1.7c-1.1,0.5-2.1,1.1-3.1,1.6c-0.5,0.3-1,0.5-1.5,0.8c-0.5,0.2-1,0.5-1.5,0.7 c-1,0.5-2,1-3,1.4c-0.5,0.2-1,0.5-1.5,0.7c-0.5,0.2-1,0.4-1.4,0.6c-0.9,0.4-1.9,0.8-2.8,1.3c-0.9,0.4-1.8,0.8-2.7,1.1 c-0.9,0.4-1.7,0.7-2.6,1.1c-0.8,0.3-1.7,0.7-2.4,1c-0.8,0.3-1.6,0.6-2.3,0.9c-0.4,0.1-0.7,0.3-1.1,0.4c-0.4,0.1-0.7,0.3-1.1,0.4 c-1.4,0.5-2.6,1-3.8,1.4c-1.1,0.4-2.2,0.8-3.1,1.1c-0.9,0.3-1.7,0.6-2.3,0.8c-1.2,0.4-1.9,0.6-1.9,0.6l3.1,0.6 c0,0,0.7-0.2,1.9-0.6c0.3-0.1,0.6-0.2,1-0.4c0.2-0.1,0.4-0.1,0.6-0.2c0.2-0.1,0.4-0.2,0.6-0.2c0.9-0.3,1.9-0.7,3-1.1 c2.3-0.8,5-1.9,8.1-3.2c1.5-0.7,3.2-1.4,4.9-2.1c1.7-0.8,3.5-1.6,5.4-2.5c0.9-0.4,1.9-0.9,2.8-1.4c0.5-0.2,1-0.5,1.5-0.7 c0.5-0.2,1-0.5,1.5-0.7c1-0.5,2-1,3-1.6c0.5-0.3,1-0.5,1.5-0.8c0.5-0.3,1-0.6,1.5-0.9c1-0.6,2.1-1.2,3.1-1.8 c1-0.6,2.1-1.3,3.2-1.9c1.1-0.6,2.1-1.3,3.2-2c1.1-0.7,2.2-1.4,3.2-2.1c1.1-0.7,2.1-1.5,3.2-2.2c1.1-0.8,2.1-1.5,3.2-2.3 c0.5-0.4,1.1-0.8,1.6-1.2c0.5-0.4,1.1-0.8,1.6-1.2c1.1-0.8,2.1-1.7,3.2-2.5c4.2-3.4,8.3-7.1,12.1-11.1c3.8-3.9,7.5-8.1,10.7-12.4 c3.3-4.3,6.3-8.7,8.9-13.2c2.6-4.5,4.8-8.9,6.7-13.2c1.9-4.3,3.4-8.5,4.6-12.5c2.5-7.9,3.7-14.6,4.4-19.4 c0.1-0.6,0.2-1.2,0.2-1.7c0.1-0.5,0.1-1,0.2-1.5c0.1-0.9,0.2-1.7,0.3-2.4c0.1-0.6,0.1-1.1,0.1-1.5c0-0.3,0-0.5,0-0.5L267.5,75.6z "></path> <g> <path class="st0" d="M206.9,192.2c-0.4,0.2-0.9,0.4-1.4,0.6c-0.5,0.2-1.1,0.4-1.7,0.6c-1.3,0.4-2.7,0.8-4.2,1.2 c-0.8,0.2-1.6,0.3-2.4,0.4c-0.8,0.1-1.6,0.2-2.5,0.2c-0.8,0-1.7,0-2.5,0c-0.8-0.1-1.7-0.2-2.5-0.4c-1.1-0.2-3-1.1-5-2.2 c-1.9-1.2-3.8-2.6-4.6-3.9c0.3-0.1,1.3-0.1,2.5-0.2c1.3-0.1,2.9-0.2,4.6-0.2c1.7,0,3.6-0.1,5.3-0.1c0.8,0,1.7,0,2.4,0.1 c0.7,0,1.4,0.1,2,0.2c1.6,0.2,3.3,0.7,4.9,1.3c0.8,0.3,1.7,0.7,2.5,1.1C205.2,191.2,206,191.7,206.9,192.2z"></path> <path class="st0" d="M220.6,182.3c-0.8,0.4-1.8,0.9-2.9,1.5c-1.2,0.5-2.5,1.1-3.9,1.5c-0.4,0.1-0.7,0.2-1.1,0.3 c-0.4,0.1-0.8,0.2-1.1,0.3c-0.8,0.2-1.6,0.3-2.3,0.4c-0.8,0.1-1.6,0.2-2.4,0.2c-0.8,0-1.6,0-2.4-0.1c-1.1-0.1-3.2-0.7-5.3-1.7 c-2.1-0.9-4-2.1-5-3.2c0.4-0.2,1.4-0.3,2.6-0.5c0.6-0.1,1.3-0.2,2.1-0.3c0.7-0.1,1.5-0.2,2.4-0.3c0.4-0.1,0.8-0.1,1.2-0.2 l0.6-0.1c0.2,0,0.4-0.1,0.6-0.1c0.8-0.1,1.7-0.2,2.5-0.3c0.8-0.1,1.6-0.1,2.3-0.2c0.7,0,1.3-0.1,1.9-0.1c1.6,0,3.3,0.3,5.1,0.7 C217,180.8,218.8,181.4,220.6,182.3z"></path> <path class="st0" d="M233.4,171.1c-0.7,0.5-1.6,1.1-2.7,1.7c-0.5,0.3-1.1,0.7-1.7,1c-0.6,0.3-1.2,0.6-1.9,0.9 c-0.7,0.3-1.4,0.6-2.1,0.9c-0.7,0.3-1.4,0.5-2.2,0.7c-0.7,0.2-1.5,0.4-2.3,0.5c-0.4,0.1-0.8,0.1-1.1,0.1c-0.4,0-0.8,0.1-1.2,0.1 c-1.2,0-3.4-0.3-5.5-1c-2.2-0.6-4.3-1.6-5.3-2.5c0.5-0.3,1.5-0.6,2.7-0.9c1.2-0.4,2.6-0.7,4.2-1.1c0.8-0.2,1.5-0.4,2.3-0.5 c0.8-0.2,1.5-0.3,2.3-0.5c1.5-0.3,2.8-0.5,3.9-0.6C226.1,169.5,229.6,169.8,233.4,171.1z"></path> <path class="st0" d="M245,158.6c-0.6,0.6-1.4,1.3-2.3,2c-1,0.7-2,1.5-3.2,2.2c-1.2,0.7-2.5,1.4-3.9,2c-0.3,0.1-0.7,0.3-1,0.4 c-0.4,0.1-0.7,0.2-1.1,0.3c-0.7,0.2-1.4,0.4-2.1,0.5c-0.6,0.1-1.4,0.1-2.4,0.1c-1,0-2.1-0.1-3.2-0.3c-1.1-0.2-2.2-0.4-3.2-0.7 c-1-0.3-1.8-0.6-2.4-1c0.3-0.2,0.7-0.4,1.2-0.6c0.5-0.2,1-0.5,1.5-0.7c0.6-0.2,1.2-0.5,1.8-0.8c0.7-0.3,1.3-0.5,2-0.8 c0.7-0.3,1.4-0.5,2.1-0.8c0.7-0.2,1.4-0.5,2.1-0.7c1.3-0.5,2.6-0.8,3.6-1c1.6-0.4,3.3-0.6,5.1-0.7c0.9,0,1.8,0,2.7,0.1 C243.1,158.2,244,158.4,245,158.6z"></path> <path class="st0" d="M255.1,144.8c-0.3,0.3-0.5,0.7-0.9,1c-0.3,0.4-0.7,0.8-1.1,1.2c-0.8,0.8-1.7,1.7-2.8,2.5 c-1.1,0.8-2.2,1.6-3.4,2.4c-1.2,0.7-2.5,1.3-3.8,1.7c-0.6,0.2-1.5,0.4-2.5,0.5c-1,0.1-2.1,0.2-3.3,0.2c-0.3,0-0.6,0-0.8,0 c-0.3,0-0.6,0-0.8,0c-0.6,0-1.1-0.1-1.6-0.1c-1-0.1-1.9-0.3-2.4-0.5c0.6-0.6,1.6-1.2,2.6-1.8c1-0.7,2.2-1.3,3.5-2 c1.2-0.7,2.5-1.3,3.7-1.9c1.2-0.6,2.3-1.1,3.2-1.4c1.6-0.6,3.2-1.1,5-1.4C251.3,144.8,253.1,144.6,255.1,144.8z"></path> <path class="st0" d="M263.4,130c-0.4,0.7-0.9,1.5-1.6,2.4c-0.7,0.9-1.4,1.8-2.3,2.8c-0.4,0.5-0.9,0.9-1.4,1.4 c-0.5,0.4-1,0.9-1.5,1.3c-0.3,0.2-0.5,0.4-0.8,0.6c-0.3,0.2-0.5,0.4-0.8,0.6c-0.6,0.4-1.1,0.7-1.7,1c-0.3,0.1-0.6,0.3-1,0.4 c-0.4,0.2-0.9,0.3-1.4,0.4c-1,0.3-2.1,0.5-3.2,0.7c-0.6,0.1-1.1,0.2-1.7,0.2c-0.6,0.1-1.1,0.1-1.6,0.1c-1,0-1.9,0-2.5-0.1 c0.6-0.8,1.5-1.5,2.4-2.3c0.9-0.8,2-1.6,3-2.4c1-0.8,2.1-1.5,3.1-2.2c1-0.7,1.9-1.3,2.7-1.7c0.4-0.2,0.7-0.4,1.1-0.6 c0.4-0.2,0.8-0.4,1.1-0.6c0.8-0.4,1.6-0.7,2.4-1C259.7,130.4,261.5,130,263.4,130z"></path> <path class="st0" d="M269.8,114.3c-0.3,0.7-0.7,1.5-1.2,2.5c-0.3,0.5-0.5,0.9-0.8,1.4c-0.1,0.2-0.3,0.5-0.5,0.7 c-0.2,0.2-0.3,0.5-0.5,0.7c-1.4,2-3.2,4-5.1,5.4c-0.5,0.4-1.3,0.8-2.3,1.3c-0.2,0.1-0.5,0.2-0.7,0.3c-0.3,0.1-0.5,0.2-0.8,0.3 c-0.5,0.2-1.1,0.4-1.6,0.6c-2.2,0.8-4.4,1.2-5.6,1.3c0.3-0.5,0.7-0.9,1-1.4c0.4-0.5,0.7-0.9,1.1-1.4c0.4-0.5,0.8-0.9,1.3-1.4 c0.4-0.4,0.9-0.9,1.3-1.3c0.4-0.4,0.9-0.9,1.3-1.3c0.4-0.4,0.9-0.8,1.3-1.2c0.4-0.4,0.8-0.7,1.2-1c0.4-0.3,0.8-0.6,1.1-0.9 c1.3-1.1,2.8-2.1,4.3-2.9c0.8-0.4,1.6-0.8,2.5-1.1C268,114.7,268.9,114.5,269.8,114.3z"></path> <path class="st0" d="M274.2,98c-0.3,1.4-1,3.4-2,5.5c-1,2.1-2.4,4.2-3.9,5.8c-0.5,0.5-1.2,1.1-2.1,1.7c-0.9,0.6-1.9,1.2-2.9,1.8 c-0.3,0.1-0.5,0.3-0.8,0.4c-0.3,0.1-0.5,0.3-0.8,0.4c-0.5,0.2-1,0.5-1.5,0.6c-0.9,0.4-1.7,0.7-2.3,0.8c0.5-1.1,1.2-2.2,1.8-3.3 c0.3-0.5,0.6-1,1-1.5c0.3-0.5,0.7-1,1-1.4c0.3-0.5,0.7-0.9,1-1.3c0.3-0.4,0.7-0.8,1-1.2c0.6-0.8,1.3-1.5,1.8-2.1 c1.1-1.3,2.4-2.5,3.8-3.6c0.7-0.5,1.5-1,2.3-1.4C272.5,98.7,273.4,98.3,274.2,98z"></path> <path class="st0" d="M276.6,81.5c0,0.7-0.2,1.5-0.4,2.5c-0.1,0.5-0.2,1-0.3,1.5c-0.1,0.5-0.3,1-0.5,1.5 c-0.7,2.1-1.6,4.3-2.8,5.9c-0.4,0.6-1.1,1.3-1.8,2c-0.4,0.4-0.8,0.8-1.3,1.1c-0.4,0.4-0.9,0.7-1.4,1.1c-0.5,0.4-0.9,0.7-1.4,1 c-0.5,0.3-0.9,0.6-1.3,0.9c-0.8,0.5-1.6,0.9-2.1,1.2c0.2-0.7,0.4-1.3,0.7-1.9c0.1-0.3,0.2-0.6,0.4-0.9c0.1-0.3,0.2-0.6,0.3-0.9 c0.2-0.6,0.5-1.1,0.7-1.6c0.2-0.5,0.5-1,0.7-1.5c0.2-0.5,0.5-0.9,0.7-1.4c0.2-0.4,0.5-0.8,0.7-1.2c0.2-0.4,0.5-0.8,0.7-1.1 c0.2-0.4,0.4-0.7,0.7-1C270.9,85.9,273.2,82.9,276.6,81.5z"></path> <path class="st0" d="M276.8,64.8c0.1,1.3,0.1,3.3-0.3,5.3c-0.3,2.1-0.9,4.2-1.7,5.9c-0.3,0.7-0.9,1.5-1.5,2.4 c-0.3,0.4-0.7,0.9-1.1,1.3c-0.4,0.4-0.8,0.9-1.2,1.3c-0.8,0.9-1.7,1.7-2.4,2.3c-0.7,0.7-1.4,1.2-1.8,1.5 c0.2-0.7,0.3-1.4,0.4-2.1c0.1-0.7,0.3-1.3,0.4-1.9c0.1-0.6,0.3-1.1,0.4-1.7c0.1-0.5,0.3-1,0.4-1.5c0.6-1.9,1.2-3.3,1.8-4.6 C271.9,70,273.7,66.7,276.8,64.8z"></path> </g> <path class="st0" d="M267,51.4c0.5,0.9,1,2,1.4,3c0.4,1.1,0.8,2.2,1.1,3.4c0.6,2.4,0.8,5,0.7,7.9c-0.1,1.6-0.5,4.3-1.1,6.5 c-0.6,2.3-1.2,4.2-1.6,4.6c-0.3-0.6-0.5-2.7-0.8-5.1c-0.3-2.3-0.5-4.9-0.6-6.5c-0.2-3-0.1-5.4,0.2-7.6c0.1-1.1,0.2-2.1,0.4-3.2 C266.8,53.5,267,52.4,267,51.4z"></path> <g> <path class="st0" d="M191.5,165.3c-0.6,0.5-1.3,1.2-2.2,1.9c-0.9,0.8-1.8,1.6-2.7,2.7c-0.2,0.3-0.5,0.5-0.7,0.8 c-0.2,0.3-0.5,0.5-0.7,0.8c-0.5,0.6-0.9,1.1-1.3,1.8c-0.4,0.6-0.8,1.3-1.2,2c-0.4,0.7-0.7,1.4-1,2.1c-0.2,0.5-0.6,1.3-1,2.3 c-0.4,1-0.9,2.2-1.4,3.5c-1,2.5-1.8,5.1-1.4,6.6c0.3-0.2,1.1-0.9,2.2-2c0.6-0.5,1.2-1.1,1.9-1.8c0.7-0.7,1.4-1.4,2.1-2.1 c0.7-0.7,1.4-1.5,2.1-2.3c0.7-0.8,1.3-1.5,1.9-2.3c0.6-0.7,1.1-1.4,1.5-2.1c0.4-0.7,0.7-1.3,1-1.8c0.6-1.4,1-3,1.2-4.7 C191.7,169,191.7,167.2,191.5,165.3z"></path> <path class="st0" d="M203.7,158c-0.5,0.5-1.2,1.2-2,2c-0.8,0.8-1.6,1.7-2.5,2.8c-0.8,1.1-1.7,2.2-2.5,3.5 c-0.4,0.6-0.7,1.3-1.1,2c-0.3,0.7-0.6,1.4-0.9,2.1c-0.2,0.5-0.5,1.3-0.8,2.3c-0.2,0.5-0.4,1.1-0.6,1.7c-0.2,0.6-0.4,1.2-0.6,1.8 c-0.8,2.5-1.4,5.1-1,6.5c0.3-0.2,1-1,2-2.1c0.5-0.5,1.1-1.2,1.7-1.8c0.6-0.7,1.2-1.4,1.9-2.2c0.6-0.8,1.3-1.5,1.9-2.3 c0.6-0.8,1.2-1.6,1.7-2.4c0.5-0.8,1-1.5,1.3-2.1c0.4-0.7,0.6-1.3,0.8-1.8c0.5-1.5,0.8-3,0.9-4.7 C204.2,161.6,204,159.8,203.7,158z"></path> <path class="st0" d="M215.2,149.6c-0.2,0.3-0.5,0.6-0.8,1c-0.3,0.4-0.6,0.7-1,1.2c-0.3,0.4-0.7,0.9-1,1.4 c-0.4,0.5-0.7,1-1.1,1.5c-0.7,1.1-1.5,2.3-2.1,3.6c-0.3,0.6-0.6,1.3-0.9,2c-0.1,0.4-0.3,0.7-0.4,1.1c-0.1,0.4-0.2,0.7-0.3,1.1 c-0.1,0.5-0.4,1.3-0.7,2.3c-0.3,1-0.6,2.3-0.9,3.5c-0.6,2.5-1.1,5.1-0.6,6.5c0.2-0.2,0.9-1,1.8-2.2c0.5-0.6,1-1.2,1.5-1.9 c0.5-0.7,1.1-1.5,1.7-2.3c0.3-0.4,0.6-0.8,0.8-1.2l0.4-0.6c0.1-0.2,0.3-0.4,0.4-0.6c0.5-0.8,1-1.6,1.5-2.4 c0.2-0.4,0.4-0.8,0.6-1.1c0.2-0.4,0.4-0.7,0.5-1.1c0.3-0.7,0.5-1.3,0.7-1.8c0.2-0.7,0.3-1.5,0.4-2.3c0.1-0.8,0.1-1.6,0.1-2.4 c0-0.8-0.1-1.7-0.2-2.6C215.6,151.4,215.4,150.5,215.2,149.6z"></path> <path class="st0" d="M225.6,140.1c-0.4,0.6-0.9,1.3-1.5,2.2c-0.6,0.9-1.2,1.9-1.8,3c-0.3,0.6-0.6,1.1-0.9,1.8 c-0.3,0.6-0.6,1.3-0.8,1.9c-0.3,0.7-0.5,1.4-0.7,2.1c-0.2,0.7-0.4,1.4-0.5,2.2c-0.2,1-0.7,3.3-1.1,5.8c0,0.3-0.1,0.6-0.1,0.9 c0,0.3-0.1,0.6-0.1,0.9c-0.1,0.6-0.1,1.2-0.2,1.8c-0.1,1.1,0,2.1,0.3,2.8c0.2-0.2,0.8-1.1,1.6-2.2c0.4-0.6,0.9-1.3,1.3-2 c0.5-0.7,1-1.5,1.5-2.3c0.5-0.8,0.9-1.7,1.4-2.5c0.4-0.8,0.9-1.6,1.2-2.5c0.4-0.8,0.7-1.6,0.9-2.3c0.2-0.7,0.4-1.3,0.5-1.8 c0.3-1.5,0.3-3.1,0.1-4.7C226.6,143.5,226.2,141.8,225.6,140.1z"></path> <path class="st0" d="M234.9,129.5c-0.3,0.6-0.8,1.4-1.2,2.3c-0.5,0.9-1,2-1.5,3.1c-0.5,1.1-1,2.4-1.4,3.8 c-0.4,1.3-0.7,2.8-0.8,4.3c0,0.5-0.1,1.3-0.2,2.3c0,0.5-0.1,1.1-0.1,1.6c0,0.6-0.1,1.2-0.1,1.8c-0.2,2.4-0.2,5,0.4,6.3 c0.1-0.1,0.3-0.4,0.5-0.8c0.2-0.4,0.5-0.9,0.9-1.5c0.3-0.6,0.7-1.3,1.1-2c0.4-0.7,0.8-1.6,1.2-2.4c0.8-1.6,1.5-3.5,2.1-5.1 c0.6-1.6,0.9-3.1,1-4.1c0.1-1.5,0-3-0.3-4.6c-0.1-0.8-0.4-1.6-0.6-2.4C235.5,131.1,235.2,130.3,234.9,129.5z"></path> <path class="st0" d="M242.8,117.8c-0.5,1.3-1.4,3.2-2.1,5.6c-0.1,0.3-0.2,0.6-0.3,0.9c-0.1,0.3-0.2,0.6-0.3,0.9 c-0.2,0.6-0.3,1.3-0.4,2c-0.1,0.3-0.1,0.7-0.2,1c-0.1,0.3-0.1,0.7-0.1,1.1c-0.1,0.7-0.1,1.5-0.1,2.2c0,0.5,0,1.3,0,2.3 c0,1,0,2.2,0.1,3.4c0,1.2,0.1,2.4,0.3,3.5c0.1,1.1,0.3,2,0.7,2.6c0.1-0.3,0.6-1.1,1.1-2.4c0.3-0.6,0.6-1.3,0.9-2.1 c0.2-0.4,0.3-0.8,0.5-1.2c0.1-0.4,0.3-0.8,0.5-1.3c0.6-1.7,1.1-3.5,1.6-5.1c0.4-1.6,0.6-3.1,0.6-4.2c0-1.5-0.3-3-0.7-4.6 C244.3,121,243.6,119.4,242.8,117.8z"></path> <path class="st0" d="M249.2,105.2c-0.2,0.6-0.4,1.5-0.7,2.4c-0.1,0.5-0.3,1-0.4,1.5c-0.1,0.5-0.2,1.1-0.4,1.7 c-0.2,1.2-0.4,2.5-0.5,3.9c-0.1,0.7-0.1,1.4-0.1,2.1c0,0.7,0,1.4,0.1,2.2c0,0.2,0.1,0.6,0.1,0.9c0,0.2,0,0.4,0.1,0.6 c0,0.2,0,0.4,0.1,0.7c0.1,1,0.2,2.1,0.4,3.3c0.2,1.2,0.3,2.3,0.6,3.4c0.1,0.5,0.3,1,0.4,1.4c0.2,0.4,0.3,0.8,0.5,1.1 c0.1-0.1,0.2-0.4,0.3-0.8c0.1-0.4,0.3-1,0.5-1.6c0.1-0.3,0.2-0.6,0.3-1c0.1-0.4,0.2-0.7,0.3-1.1c0.2-0.8,0.4-1.6,0.6-2.5 c0.1-0.4,0.2-0.9,0.3-1.3c0.1-0.4,0.2-0.9,0.3-1.3c0.1-0.4,0.2-0.9,0.2-1.3c0.1-0.4,0.1-0.8,0.2-1.3c0.1-0.8,0.2-1.6,0.2-2.3 c0-0.7,0-1.3,0-1.8c-0.1-0.7-0.2-1.5-0.4-2.2c-0.2-0.7-0.4-1.5-0.7-2.2c-0.1-0.4-0.3-0.7-0.5-1.1c-0.2-0.4-0.4-0.8-0.6-1.1 C250.1,106.7,249.7,106,249.2,105.2z"></path> <path class="st0" d="M254,91.8c-0.1,0.7-0.3,1.5-0.4,2.5c-0.1,0.5-0.2,1-0.2,1.5c-0.1,0.5-0.1,1.1-0.2,1.7 c-0.1,1.2-0.2,2.5-0.1,3.8c0,0.7,0.1,1.4,0.1,2.1c0.1,0.7,0.2,1.4,0.3,2.1c0.1,0.5,0.3,1.2,0.4,2.2c0.2,0.9,0.5,2,0.7,3.1 c0.3,1.1,0.6,2.3,0.9,3.2c0.3,1,0.7,1.8,1.1,2.4c0.1-0.3,0.3-1.2,0.6-2.4c0.2-1.3,0.6-2.9,0.8-4.6c0.1-0.4,0.1-0.9,0.2-1.3 c0.1-0.4,0.1-0.9,0.1-1.3c0.1-0.9,0.1-1.7,0.1-2.5c0-0.8,0-1.6,0-2.3c0-0.7-0.1-1.3-0.2-1.8C257.7,97.6,256.2,94.7,254,91.8z"></path> <path class="st0" d="M257.2,77.9c0,0.6-0.1,1.5-0.2,2.4c-0.1,1-0.1,2.1-0.1,3.3c0,1.2,0.1,2.5,0.3,3.8c0.2,1.3,0.5,2.7,0.9,4.1 c0.1,0.4,0.4,1.2,0.7,2.1c0.3,0.9,0.6,1.9,1,3c0.4,1.1,0.8,2.1,1.2,3.1c0.4,0.9,0.9,1.7,1.3,2.3c0-0.3,0.2-1.2,0.3-2.4 c0.1-0.6,0.1-1.3,0.2-2.1c0.1-0.8,0.1-1.6,0.1-2.4c0-0.8,0-1.7,0-2.5c0-0.4,0-0.8,0-1.3c0-0.4-0.1-0.8-0.1-1.2 c-0.1-1.6-0.4-3-0.6-4C261.3,83.3,259.5,80.5,257.2,77.9z"></path> <path class="st0" d="M258.5,63.6c0.1,1.3,0.1,3.2,0.4,5.6c0.3,2.3,0.8,5,1.9,7.7c0.4,0.9,1.2,2.8,2.1,4.8c0.9,2,2,4.1,3,5 c0-0.3,0-1.2,0-2.4c0-0.6,0-1.3,0-2c0-0.7-0.1-1.5-0.1-2.3c-0.1-0.8-0.1-1.6-0.2-2.5c-0.1-0.8-0.2-1.6-0.4-2.4 c-0.1-0.8-0.3-1.5-0.5-2.1c-0.2-0.6-0.4-1.2-0.6-1.7C263.1,68.6,261.1,66,258.5,63.6z"></path> </g> </g> </g> </g> <g> <path class="st0" d="M14.3,228.7v-14.1h6c1.8,0,3.2,0.4,4.3,1.3c1.1,0.9,1.6,2.1,1.6,3.7c0,1.6-0.6,2.9-1.7,3.7 c-1.1,0.9-2.6,1.3-4.4,1.3h-1.9v4H14.3z M18.2,221.6h1.8c0.7,0,1.2-0.2,1.6-0.5c0.4-0.3,0.6-0.8,0.6-1.4c0-0.6-0.2-1.1-0.6-1.4 c-0.4-0.3-0.9-0.5-1.7-0.5h-1.8V221.6z"></path> <path class="st0" d="M27.9,228.7v-14.1h11.3v3.3h-7.5v2.1h6.8v3.1h-6.8v2.2h7.6v3.3H27.9z"></path> <path class="st0" d="M41.3,228.7v-14.1h11.3v3.3h-7.5v2.1h6.8v3.1h-6.8v2.2h7.6v3.3H41.3z"></path> <path class="st0" d="M58.1,228.7v-10.7h-4.2v-3.4h12.3v3.4H62v10.7H58.1z"></path> <path class="st0" d="M68,228.7v-14.1h11.3v3.3h-7.5v2.1h6.8v3.1h-6.8v2.2h7.6v3.3H68z"></path> <path class="st0" d="M81.4,228.7v-14.1H88c2.1,0,3.6,0.5,4.6,1.5c0.8,0.8,1.2,1.9,1.2,3.3c0,2.1-1,3.5-2.9,4.3l3.4,4.9h-4.5 l-2.8-4.3h-1.7v4.3H81.4z M85.3,221.4h2.6c0.7,0,1.2-0.2,1.5-0.5c0.4-0.3,0.6-0.7,0.6-1.3c0-0.5-0.2-1-0.6-1.2 c-0.4-0.3-0.9-0.4-1.6-0.4h-2.6V221.4z"></path> <path class="st0" d="M101.4,229c-2.7,0-4.9-0.8-6.6-2.3l2.2-2.6c1.4,1.1,2.9,1.7,4.6,1.7c1.1,0,1.6-0.3,1.6-1 c0-0.3-0.2-0.5-0.5-0.7c-0.3-0.2-1-0.4-1.9-0.6c-0.9-0.2-1.6-0.4-2.1-0.6c-0.6-0.2-1.1-0.5-1.6-0.8c-0.5-0.3-0.9-0.7-1.2-1.3 c-0.3-0.5-0.4-1.1-0.4-1.8c0-1.3,0.5-2.4,1.5-3.2c1-0.8,2.3-1.3,4-1.3c2.3,0,4.2,0.6,5.8,1.9l-2,2.8c-1.3-0.9-2.6-1.4-3.9-1.4 c-0.5,0-0.8,0.1-1,0.3c-0.2,0.2-0.4,0.4-0.4,0.7c0,0.3,0.2,0.6,0.5,0.8c0.3,0.2,1,0.4,1.9,0.6c1.8,0.4,3.1,0.9,4,1.6 c0.9,0.6,1.3,1.6,1.3,2.9c0,1.4-0.5,2.5-1.5,3.4C104.5,228.6,103.1,229,101.4,229z"></path> <path class="st0" d="M114.5,228.7v-14.1h11.3v3.4h-7.4v2.4h6.7v3.2h-6.7v5H114.5z"></path> <path class="st0" d="M127.6,228.7v-14.1h3.9v14.1H127.6z"></path> <path class="st0" d="M139.7,229c-2.7,0-4.9-0.8-6.6-2.3l2.2-2.6c1.4,1.1,2.9,1.7,4.6,1.7c1.1,0,1.6-0.3,1.6-1 c0-0.3-0.2-0.5-0.5-0.7c-0.3-0.2-1-0.4-1.9-0.6c-0.9-0.2-1.6-0.4-2.1-0.6s-1.1-0.5-1.6-0.8c-0.5-0.3-0.9-0.7-1.2-1.3 c-0.3-0.5-0.4-1.1-0.4-1.8c0-1.3,0.5-2.4,1.5-3.2c1-0.8,2.3-1.3,4-1.3c2.3,0,4.2,0.6,5.8,1.9l-2,2.8c-1.3-0.9-2.6-1.4-3.9-1.4 c-0.5,0-0.8,0.1-1,0.3c-0.2,0.2-0.4,0.4-0.4,0.7c0,0.3,0.2,0.6,0.5,0.8c0.3,0.2,1,0.4,1.9,0.6c1.8,0.4,3.1,0.9,4,1.6 c0.9,0.6,1.3,1.6,1.3,2.9c0,1.4-0.5,2.5-1.5,3.4C142.8,228.6,141.4,229,139.7,229z"></path> <path class="st0" d="M154,229c-2,0-3.8-0.7-5.2-2.1c-1.4-1.4-2.1-3.1-2.1-5.2c0-2.1,0.7-3.8,2.1-5.2c1.4-1.4,3.2-2.1,5.3-2.1 c2.5,0,4.5,1,5.9,3l-2.9,2.2c-0.9-1.1-1.9-1.6-3.1-1.6c-1,0-1.8,0.4-2.4,1.1c-0.6,0.7-0.9,1.6-0.9,2.7c0,1.1,0.3,2,0.9,2.7 c0.6,0.7,1.4,1.1,2.4,1.1c0.7,0,1.3-0.1,1.7-0.4c0.5-0.3,1-0.7,1.4-1.3l2.9,2.1c-0.7,1-1.6,1.8-2.6,2.3 C156.7,228.7,155.5,229,154,229z"></path> <path class="st0" d="M160.8,228.7l6-14.2h3.8l6,14.2h-4.2l-1-2.5h-5.4l-1,2.5H160.8z M167,223.2h3.2l-1.6-4L167,223.2z"></path> <path class="st0" d="M176.8,228.7l6-14.2h3.8l6,14.2h-4.2l-1-2.5h-5.4l-1,2.5H176.8z M183,223.2h3.2l-1.6-4L183,223.2z"></path> <path class="st0" d="M193.9,228.7v-14.1h3.9v10.7h6.8v3.4H193.9z"></path> <path class="st0" d="M215.6,229c-2.1,0-3.8-0.8-4.9-2.4l2.5-2.4c0.7,0.9,1.5,1.3,2.2,1.3c0.5,0,0.9-0.2,1.2-0.5 c0.3-0.3,0.4-0.8,0.4-1.5v-8.9h3.9v8.9c0,1.7-0.5,3-1.4,4C218.5,228.5,217.2,229,215.6,229z"></path> <path class="st0" d="M229.5,229c-2.1,0-3.7-0.5-4.8-1.6c-1.1-1.1-1.7-2.7-1.7-4.8v-7.9h4v7.8c0,1,0.2,1.7,0.7,2.2 c0.5,0.5,1.1,0.8,1.9,0.8c0.8,0,1.4-0.2,1.9-0.7c0.5-0.5,0.7-1.2,0.7-2.2v-7.9h4v7.8c0,2.2-0.6,3.8-1.7,4.9 C233.2,228.4,231.6,229,229.5,229z"></path> <path class="st0" d="M238.4,228.7v-14.1h6.7c2.1,0,3.6,0.5,4.6,1.5c0.8,0.8,1.2,1.9,1.2,3.3c0,2.1-1,3.5-2.9,4.3l3.4,4.9h-4.5 l-2.8-4.3h-1.7v4.3H238.4z M242.3,221.4h2.6c0.7,0,1.2-0.2,1.5-0.5c0.4-0.3,0.6-0.7,0.6-1.3c0-0.5-0.2-1-0.6-1.2 c-0.4-0.3-0.9-0.4-1.6-0.4h-2.6V221.4z"></path> <path class="st0" d="M253,228.7v-14.1h3.9v14.1H253z"></path> <path class="st0" d="M259.5,228.7v-14.1h5.4c2.5,0,4.4,0.6,5.8,1.9c1.4,1.3,2.1,3,2.1,5.1c0,2.1-0.7,3.8-2.2,5.1 c-1.4,1.3-3.4,2-5.9,2H259.5z M263.4,225.3h1.6c1.2,0,2.1-0.3,2.8-0.9c0.7-0.6,1.1-1.5,1.1-2.7c0-1.1-0.4-2-1.1-2.6s-1.6-1-2.8-1 h-1.6V225.3z"></path> <path class="st0" d="M274.9,228.7v-14.1h3.9v14.1H274.9z"></path> <path class="st0" d="M286.9,229c-2.7,0-4.9-0.8-6.6-2.3l2.2-2.6c1.4,1.1,2.9,1.7,4.6,1.7c1.1,0,1.6-0.3,1.6-1 c0-0.3-0.2-0.5-0.5-0.7c-0.3-0.2-1-0.4-1.9-0.6c-0.9-0.2-1.6-0.4-2.1-0.6s-1.1-0.5-1.6-0.8c-0.5-0.3-0.9-0.7-1.2-1.3 c-0.3-0.5-0.4-1.1-0.4-1.8c0-1.3,0.5-2.4,1.5-3.2c1-0.8,2.3-1.3,4-1.3c2.3,0,4.2,0.6,5.8,1.9l-2,2.8c-1.3-0.9-2.6-1.4-3.9-1.4 c-0.5,0-0.8,0.1-1,0.3c-0.2,0.2-0.4,0.4-0.4,0.7c0,0.3,0.2,0.6,0.5,0.8c0.3,0.2,1,0.4,1.9,0.6c1.8,0.4,3.1,0.9,4,1.6 c0.9,0.6,1.3,1.6,1.3,2.9c0,1.4-0.5,2.5-1.5,3.4C290,228.6,288.7,229,286.9,229z"></path> <path class="st0" d="M301.3,229c-2,0-3.8-0.7-5.2-2.1c-1.4-1.4-2.1-3.1-2.1-5.2c0-2.1,0.7-3.8,2.1-5.2c1.4-1.4,3.2-2.1,5.3-2.1 c2.5,0,4.5,1,5.9,3l-2.9,2.2c-0.9-1.1-1.9-1.6-3.1-1.6c-1,0-1.8,0.4-2.4,1.1s-0.9,1.6-0.9,2.7c0,1.1,0.3,2,0.9,2.7s1.4,1.1,2.4,1.1 c0.7,0,1.3-0.1,1.7-0.4c0.5-0.3,1-0.7,1.4-1.3l2.9,2.1c-0.7,1-1.6,1.8-2.6,2.3C304,228.7,302.8,229,301.3,229z"></path> <path class="st0" d="M309.2,228.7v-14.1h3.9v5.3h5v-5.3h3.9v14.1h-3.9v-5.3h-5v5.3H309.2z"></path> <path class="st0" d="M60.7,252.9l6-14.2h3.8l6,14.2h-4.2l-1-2.5h-5.4l-1,2.5H60.7z M67,247.3h3.2l-1.6-4L67,247.3z"></path> <path class="st0" d="M77.9,252.9v-14.1h5.4c2.5,0,4.4,0.6,5.8,1.9c1.4,1.3,2.1,3,2.1,5.1c0,2.1-0.7,3.8-2.2,5.1 c-1.4,1.3-3.4,2-5.9,2H77.9z M81.8,249.4h1.6c1.2,0,2.1-0.3,2.8-0.9c0.7-0.6,1.1-1.5,1.1-2.7c0-1.1-0.4-2-1.1-2.6 c-0.7-0.6-1.6-1-2.8-1h-1.6V249.4z"></path> <path class="st0" d="M97.8,253l-5.7-14.2h4.4l3.2,8.9l3.2-8.9h4.3l-5.7,14.2H97.8z"></path> <path class="st0" d="M108.6,252.9v-14.1h3.9v14.1H108.6z"></path> <path class="st0" d="M115.1,252.9v-14.1h11.3v3.3H119v2.1h6.8v3.1H119v2.2h7.6v3.3H115.1z"></path> <path class="st0" d="M134,253.1c-2.7,0-4.9-0.8-6.6-2.3l2.2-2.6c1.4,1.1,2.9,1.7,4.6,1.7c1.1,0,1.6-0.3,1.6-1 c0-0.3-0.2-0.5-0.5-0.7c-0.3-0.2-1-0.4-1.9-0.6c-0.9-0.2-1.6-0.4-2.1-0.6s-1.1-0.5-1.6-0.8c-0.5-0.3-0.9-0.7-1.2-1.3 c-0.3-0.5-0.4-1.1-0.4-1.8c0-1.3,0.5-2.4,1.5-3.2c1-0.8,2.3-1.3,4-1.3c2.3,0,4.2,0.6,5.8,1.9l-2,2.8c-1.3-0.9-2.6-1.4-3.9-1.4 c-0.5,0-0.8,0.1-1,0.3c-0.2,0.2-0.4,0.4-0.4,0.7c0,0.3,0.2,0.6,0.5,0.8c0.3,0.2,1,0.4,1.9,0.6c1.8,0.4,3.1,0.9,4,1.6 c0.9,0.6,1.3,1.6,1.3,2.9c0,1.4-0.5,2.5-1.5,3.4C137.1,252.7,135.8,253.1,134,253.1z"></path> <path class="st0" d="M141.6,252.9v-14.1h7.2c1.7,0,3,0.4,3.8,1.3c0.6,0.6,0.9,1.4,0.9,2.3c0,1.5-0.7,2.5-2.2,3.1 c0.9,0.3,1.6,0.7,2.1,1.3c0.5,0.5,0.7,1.3,0.7,2.2c0,1.2-0.5,2.2-1.4,2.8c-0.9,0.7-2.2,1-3.9,1H141.6z M145.4,244.4h2.5 c1.2,0,1.8-0.4,1.8-1.3c0-0.8-0.6-1.2-1.8-1.2h-2.5V244.4z M145.4,249.7h3c1.2,0,1.9-0.4,1.9-1.3c0-0.8-0.6-1.3-1.9-1.3h-3V249.7z"></path> <path class="st0" d="M162.3,253.1c-2.1,0-3.7-0.5-4.8-1.6c-1.1-1.1-1.7-2.7-1.7-4.8v-7.9h4v7.8c0,1,0.2,1.7,0.7,2.2 c0.5,0.5,1.1,0.8,1.9,0.8s1.4-0.2,1.9-0.7c0.5-0.5,0.7-1.2,0.7-2.2v-7.9h4v7.8c0,2.2-0.6,3.8-1.7,4.9 C166,252.6,164.4,253.1,162.3,253.1z"></path> <path class="st0" d="M171.2,252.9v-14.1h6.7c2.1,0,3.6,0.5,4.6,1.5c0.8,0.8,1.2,1.9,1.2,3.3c0,2.1-1,3.5-2.9,4.3l3.4,4.9h-4.5 l-2.8-4.3h-1.7v4.3H171.2z M175.1,245.5h2.6c0.7,0,1.2-0.2,1.5-0.5c0.4-0.3,0.6-0.7,0.6-1.3c0-0.5-0.2-1-0.6-1.2 c-0.4-0.3-0.9-0.4-1.6-0.4h-2.6V245.5z"></path> <path class="st0" d="M185.7,252.9v-14.1H197v3.3h-7.5v2.1h6.8v3.1h-6.8v2.2h7.6v3.3H185.7z"></path> <path class="st0" d="M198,252.9l6-14.2h3.8l6,14.2h-4.2l-1-2.5h-5.4l-1,2.5H198z M204.2,247.3h3.2l-1.6-4L204.2,247.3z"></path> <path class="st0" d="M221.4,253.1c-2.1,0-3.7-0.5-4.8-1.6c-1.1-1.1-1.7-2.7-1.7-4.8v-7.9h4v7.8c0,1,0.2,1.7,0.7,2.2 c0.5,0.5,1.1,0.8,1.9,0.8c0.8,0,1.4-0.2,1.9-0.7c0.5-0.5,0.7-1.2,0.7-2.2v-7.9h4v7.8c0,2.2-0.6,3.8-1.7,4.9 C225.1,252.6,223.5,253.1,221.4,253.1z"></path> <path class="st0" d="M235.9,252.9v-14.1h7.2c1.7,0,3,0.4,3.8,1.3c0.6,0.6,0.9,1.4,0.9,2.3c0,1.5-0.7,2.5-2.2,3.1 c0.9,0.3,1.6,0.7,2.1,1.3c0.5,0.5,0.7,1.3,0.7,2.2c0,1.2-0.5,2.2-1.4,2.8c-0.9,0.7-2.2,1-3.9,1H235.9z M239.7,244.4h2.5 c1.2,0,1.8-0.4,1.8-1.3c0-0.8-0.6-1.2-1.8-1.2h-2.5V244.4z M239.7,249.7h3c1.2,0,1.9-0.4,1.9-1.3c0-0.8-0.6-1.3-1.9-1.3h-3V249.7z"></path> <path class="st0" d="M249.9,252.9v-3.9h4v3.9H249.9z"></path> <path class="st0" d="M260.6,253l-5.7-14.2h4.4l3.2,8.9l3.2-8.9h4.3l-5.7,14.2H260.6z"></path> <path class="st0" d="M270.9,252.9v-3.9h4v3.9H270.9z"></path> </g> <g> <path class="st1" d="M144.2,67.6v-3H158v4.1h-0.9L144.2,67.6z M158.9,131.8l13.6,1.1v3h-28.2v-3l12.9-1.1H158.9z M155.1,97.4 c0-10.9,0-21.9-0.3-32.8h6.3c-0.3,10.7-0.3,21.7-0.3,32.8v6.8c0,10.3,0,20.8,0.3,31.7h-6.3c0.3-10.7,0.3-21.7,0.3-32.8V97.4z M167.6,106.6H158v-3.2h9.5c16.3,0,22.6-7.5,22.6-18.1c0-11.2-6-17.3-19.7-17.3H158v-3.4h13.6c16.4,0,24.6,8.1,24.6,20.7 C196.2,97.3,187.4,106.6,167.6,106.6z"></path> </g> </svg> 