<?xml version="1.0" encoding="UTF-8"?> <svg xmlns="http://www.w3.org/2000/svg" width="61" height="61" viewBox="0 0 61 61" fill="none"> <rect width="61" height="61" rx="30.5" fill="white"></rect> <path d="M42.7326 20H18.2681C17.6983 20 17.1785 20.2195 16.7795 20.579C16.3032 21.0084 16 21.638 16 22.3404V37.6596C16 38.95 17.0174 40 18.2677 40H42.7323C43.9826 40 45 38.95 45 37.6596V22.3404C45.0003 21.0503 43.983 20 42.7326 20ZM17.5124 22.4398L26.2227 30.0002L17.5124 37.5605V22.4398ZM32.2254 30.1771C31.2099 31.0585 29.791 31.0585 28.7753 30.1771L18.8478 21.5605H42.1532L32.2254 30.1771ZM27.397 31.0195L27.8024 31.3714C28.5842 32.0499 29.5422 32.3891 30.5003 32.3891C31.4584 32.3891 32.4168 32.0499 33.1983 31.3714L33.6037 31.0195L42.1529 38.4398H18.8478L27.397 31.0195ZM34.7783 30.0002L43.4886 22.4402V37.5605L34.7783 30.0002Z" fill="#007AFF" stroke="#007AFF"></path> </svg> 