<?xml version="1.0" encoding="UTF-8"?> <svg xmlns="http://www.w3.org/2000/svg" width="61" height="61" viewBox="0 0 61 61" fill="none"> <rect width="61" height="61" rx="30.5" fill="white"></rect> <path d="M31.0286 15C37.0857 15 42 19.9143 42 25.9714C42 27.9714 41.4571 29.9429 40.4286 31.6857C40.1714 32.0857 37.7714 35.5429 35.1429 39.3143C33.6 41.5429 30.5143 42.1143 28.2857 40.5429C27.8 40.2 27.4 39.8 27.0571 39.3143C24.5714 35.8 22.1429 32.3143 21.7714 31.8286C20.6286 30.1143 20.0286 28.1143 20 26.0571C20.0571 20 25 15 31.0286 15Z" stroke="#007AFF" stroke-width="2.5" stroke-linejoin="round"></path> <path d="M31.0285 30.3429C33.7268 30.3429 35.9143 28.1555 35.9143 25.4572C35.9143 22.7589 33.7268 20.5714 31.0285 20.5714C28.3302 20.5714 26.1428 22.7589 26.1428 25.4572C26.1428 28.1555 28.3302 30.3429 31.0285 30.3429Z" stroke="#007AFF" stroke-width="2.5" stroke-linejoin="round"></path> <path d="M27.0857 45.1714H34.9143" stroke="#007AFF" stroke-width="2.5" stroke-miterlimit="10" stroke-linecap="round"></path> </svg> 