<?xml version="1.0" encoding="UTF-8"?> <svg xmlns="http://www.w3.org/2000/svg" width="61" height="61" viewBox="0 0 61 61" fill="none"> <rect width="61" height="61" rx="30.5" fill="white"></rect> <path d="M39.3071 45C38.8557 45 38.4008 44.939 37.9537 44.8119C33.2481 43.4748 28.7542 40.6897 24.958 36.7579C21.1617 32.8261 18.4726 28.1718 17.1817 23.2981C16.5817 21.0328 17.503 18.5706 19.4222 17.3109C19.8818 17.0089 20.3596 16.7139 20.8422 16.4338C21.829 15.8605 23.0425 15.8552 24.009 16.4193C26.2932 17.7515 27.8615 19.8276 28.6702 22.5898C28.981 23.6515 28.7604 24.8 28.0803 25.6619L26.7951 27.291C26.2859 27.9364 26.2411 28.8663 26.686 29.552C28.0805 31.7015 29.84 33.5239 31.9154 34.9681C32.5778 35.4291 33.4756 35.3824 34.0985 34.8552L35.6715 33.524C36.5035 32.8195 37.6122 32.5907 38.6376 32.9131C41.3046 33.7507 43.3091 35.375 44.5955 37.7409C45.1398 38.7416 45.1345 39.9984 44.5815 41.0206C44.3109 41.5205 44.026 42.0153 43.7345 42.4915C42.7668 44.0728 41.0642 45 39.3071 45ZM22.4477 17.4264C22.1283 17.4264 21.8059 17.5108 21.516 17.6791C21.0551 17.9466 20.5989 18.2283 20.1602 18.5165C18.7478 19.4435 18.0696 21.2545 18.5109 22.9205C19.7387 27.5556 22.3051 31.9915 25.9325 35.7485C29.56 39.5054 33.843 42.1636 38.3183 43.4353C39.927 43.8913 41.6752 43.1898 42.5705 41.7271C42.8487 41.2726 43.1207 40.8001 43.3791 40.3228C43.6985 39.7323 43.7045 39.0113 43.3946 38.4415C42.2726 36.3781 40.5859 35.0166 38.2377 34.2792C37.6526 34.0954 37.0193 34.2263 36.5436 34.6294L34.9705 35.9606C33.8811 36.8828 32.3088 36.9619 31.1466 36.1531C28.9222 34.605 27.0366 32.6521 25.5419 30.3482C24.7612 29.1447 24.8377 27.5163 25.7278 26.3879L27.0131 24.7587C27.4021 24.2655 27.5285 23.6096 27.3512 23.004C26.6392 20.5719 25.3246 18.825 23.3325 17.6631C23.0621 17.5052 22.7563 17.4264 22.4477 17.4264Z" fill="#007AFF" stroke="#007AFF" stroke-width="1.5"></path> </svg> 