<?xml version="1.0" encoding="UTF-8"?> <svg xmlns="http://www.w3.org/2000/svg" width="137" height="137" viewBox="0 0 137 137" fill="none"> <rect width="137" height="137" rx="68.5" fill="#007AFF"></rect> <path d="M99.1571 31.089C98.1303 30.2619 96.845 29.8861 95.5363 30.0301C94.2262 30.1746 93.051 30.8235 92.2274 31.857L88.3066 36.7765H49.3203C49.1413 36.7765 48.971 36.8544 48.8541 36.99L37.1498 50.5423C37.0533 50.6542 37 50.797 37 50.9448V107.002C37 107.342 37.2758 107.618 37.616 107.618H92.4411C92.7813 107.618 93.0572 107.342 93.0572 107.002V46.6592L99.9209 38.0469C101.618 35.917 101.276 32.7958 99.1571 31.089ZM88.5228 38.4821C88.8564 39.5701 89.4364 40.5373 90.222 41.3067L74.4305 61.1209C73.6591 60.3281 73.1285 59.2727 72.9399 58.0347L88.5228 38.4821ZM70.7698 63.1232L72.0203 59.4467C72.8569 61.9137 74.9679 63.611 77.5469 63.8909L74.2449 65.9244C72.7136 65.5523 71.4636 64.5439 70.7698 63.1232ZM72.8603 66.752L69.4643 68.7822C69.3852 68.8277 69.2355 68.8905 69.1191 68.7981C69.0448 68.7391 68.9849 68.6114 69.0357 68.443L70.2667 64.6667C70.9352 65.5824 71.8237 66.2968 72.8603 66.752ZM76.5238 51.5608H69.6487V44.7847H81.9244L76.5238 51.5608ZM48.7042 39.0484V50.3288H38.962L48.7042 39.0484ZM91.8251 106.386H38.232V51.5608H49.3203C49.6604 51.5608 49.9363 51.285 49.9363 50.9448V45.4007H59.7925C60.1327 45.4007 60.4085 45.1249 60.4085 44.7847C60.4085 44.4445 60.1327 44.1687 59.7925 44.1687H49.9363V38.0085H87.3249L82.9063 43.5527H69.0327C68.6925 43.5527 68.4167 43.8285 68.4167 44.1687V52.1768C68.4167 52.517 68.6925 52.7929 69.0327 52.7929H75.5421L71.7927 57.4972C71.2485 58.18 70.835 58.9481 70.5639 59.7798L69.2272 63.8809H46.2402C45.9 63.8809 45.6242 64.1567 45.6242 64.4969C45.6242 64.8371 45.9 65.113 46.2402 65.113H68.8254L67.8604 68.0732C67.7494 68.4397 67.7674 68.815 67.896 69.1423C63.8106 73.8224 61.9274 74.2632 61.1617 74.098C60.6369 73.9848 60.2377 73.4742 59.9765 72.5833C59.8026 71.9796 59.3408 70.3762 57.678 69.7951C55.321 68.9718 51.4638 70.5003 45.8832 74.4671C45.6059 74.6642 45.5409 75.0488 45.738 75.3261C45.8581 75.4952 46.048 75.5853 46.2407 75.5853C46.3642 75.5853 46.4888 75.5482 46.597 75.4714C53.023 70.9036 55.9489 70.4963 57.2714 70.9583C58.2069 71.2852 58.5652 72.1357 58.7935 72.9272C59.1923 74.2877 59.9018 75.0868 60.9021 75.3024C62.7362 75.6981 65.3169 73.9621 68.7841 69.9995C68.9347 70.0511 69.0929 70.0771 69.2541 70.0771C69.5313 70.0771 69.8172 70.0002 70.0873 69.845L77.5375 65.3911C78.2863 64.9434 78.942 64.37 79.4862 63.6869L91.8251 48.2049V106.386ZM78.7078 62.6872C77.4662 62.771 76.3266 62.4795 75.3893 61.8944L91.1819 42.0788C92.1006 42.6812 93.1659 43.0394 94.2953 43.1288L78.7078 62.6872ZM95.2713 41.9042C92.3281 42.1036 89.9508 40.1857 89.5035 37.2516L90.8321 35.5845C91.638 38.2445 93.8529 40.0218 96.6052 40.2305L95.2713 41.9042ZM98.9575 37.2789L97.5819 39.0048C94.6502 39.2024 92.262 37.285 91.8147 34.3516L93.1907 32.6251C93.8087 31.8497 94.6894 31.3632 95.6712 31.2547C96.6505 31.1466 97.6143 31.4285 98.3838 32.0485C99.9765 33.3313 100.234 35.6777 98.9575 37.2789Z" fill="white" stroke="white" stroke-width="1.5"></path> <path d="M46.2403 81.7455H57.3285C57.6687 81.7455 57.9445 81.4696 57.9445 81.1294C57.9445 80.7892 57.6687 80.5134 57.3285 80.5134H46.2403C45.9001 80.5134 45.6243 80.7892 45.6243 81.1294C45.6243 81.4696 45.9001 81.7455 46.2403 81.7455Z" fill="white" stroke="white" stroke-width="1.5"></path> <path d="M71.4968 86.0576H46.2403C45.9001 86.0576 45.6243 86.3334 45.6243 86.6736C45.6243 87.0138 45.9001 87.2896 46.2403 87.2896H71.4968C71.837 87.2896 72.1128 87.0138 72.1128 86.6736C72.1128 86.3334 71.837 86.0576 71.4968 86.0576Z" fill="white" stroke="white" stroke-width="1.5"></path> <path d="M46.2403 59.569H57.3285C57.6687 59.569 57.9445 59.2932 57.9445 58.953C57.9445 58.6128 57.6687 58.337 57.3285 58.337H46.2403C45.9001 58.337 45.6243 58.6128 45.6243 58.953C45.6243 59.2932 45.9001 59.569 46.2403 59.569Z" fill="white" stroke="white" stroke-width="1.5"></path> <path d="M57.3285 97.7618H46.2403C45.9001 97.7618 45.6243 98.0376 45.6243 98.3778C45.6243 98.718 45.9001 98.9938 46.2403 98.9938H57.3285C57.6687 98.9938 57.9445 98.718 57.9445 98.3778C57.9445 98.0376 57.6687 97.7618 57.3285 97.7618Z" fill="white" stroke="white" stroke-width="1.5"></path> </svg> 