<?xml version="1.0" encoding="UTF-8"?> <svg xmlns="http://www.w3.org/2000/svg" width="137" height="137" viewBox="0 0 137 137" fill="none"> <rect width="137" height="137" rx="68.5" fill="#E3EAF1"></rect> <path d="M77.25 68.4154C76.5 68.4154 76 68.9237 76 69.6862C76 76.04 81 81.1231 87.25 81.1231H89.75C96 81.1231 101 76.04 101 69.6862C101 68.9237 100.5 68.4154 99.75 68.4154H96.875L89.75 43.8895C89.75 43.8895 89.75 43.7625 89.625 43.7625V43.6354C89.625 43.5083 89.5 43.5083 89.375 43.3812L89.25 43.2542C89.125 43.1271 89 43.1271 88.875 43H88.75H88.5H48.375H48.25H48.125H48L47.875 43.1271L47.75 43.2542L47.625 43.3812L47.5 43.5083L47.375 43.6354V43.7625L40.125 68.4154H37.25C36.5 68.4154 36 68.9237 36 69.6862C36 76.04 41 81.1231 47.25 81.1231H49.75C56 81.1231 61 76.04 61 69.6862C61 68.9237 60.5 68.4154 59.75 68.4154H56.875L50.125 45.5415H64.875C64.25 47.5748 65.25 49.7351 67.125 50.3705V81.2261H64.625C63.875 81.2261 63.375 81.7344 63.375 82.4968V91.5025C60.5 92.1378 58.375 94.6794 58.375 97.7292C58.375 98.4917 58.875 99 59.625 99H77.125C77.875 99 78.375 98.4917 78.375 97.7292C78.375 94.6794 76.25 92.1378 73.375 91.5025V82.4968C73.375 81.7344 72.875 81.2261 72.125 81.2261H69.625V50.3705C71.625 49.608 72.625 47.4477 71.875 45.5415H86.625L79.875 68.4154H77.25ZM75.75 96.4585H61.25C61.75 94.9335 63.25 93.9169 64.75 93.9169H72.25C73.875 93.9169 75.25 94.9335 75.75 96.4585ZM71 91.3754H66V83.7676H71V91.3754ZM89.75 78.5815H87.25C82.875 78.5815 79.25 75.2775 78.625 70.9569H98.5C97.75 75.2775 94.125 78.5815 89.75 78.5815ZM49.75 78.5815H47.25C42.875 78.5815 39.25 75.2775 38.625 70.9569H58.5C57.75 75.2775 54.125 78.5815 49.75 78.5815ZM42.625 68.4154L48.5 48.7185L54.375 68.4154H42.625ZM69.75 46.8123C69.75 47.5748 69.25 48.0831 68.5 48.0831C67.75 48.0831 67.25 47.5748 67.25 46.8123C67.25 46.0498 67.75 45.5415 68.5 45.5415C69.25 45.5415 69.75 46.0498 69.75 46.8123ZM88.5 48.7185L94.375 68.4154H82.75L88.5 48.7185Z" fill="#007AFF" stroke="#007AFF"></path> </svg> 