<?xml version="1.0" encoding="UTF-8"?> <svg xmlns="http://www.w3.org/2000/svg" width="137" height="137" viewBox="0 0 137 137" fill="none"> <rect width="137" height="137" rx="68.5" fill="#E3EAF1"></rect> <path d="M68.522 36C59.9191 36.0073 51.6683 39.42 45.5745 45.492C39.4802 51.5644 36.0379 59.8024 36.0003 68.4056C35.9205 86.3085 50.6835 101.087 68.4786 101C77.0984 101.006 85.3667 97.5869 91.4652 91.4963C97.5645 85.4052 100.994 77.1406 101 68.5223C101.005 59.9026 97.5872 51.6339 91.4961 45.5355C85.4054 39.4363 77.1414 36.0067 68.5218 36.0008L68.522 36ZM44.4555 51.1183C47.8597 46.3993 52.5783 42.7875 58.0233 40.7344C58.1393 40.6909 58.2627 40.6691 58.386 40.6329C57.2302 42.1309 56.1552 43.6902 55.1664 45.3029C54.075 47.1536 53.1713 49.1092 52.4686 51.14C52.3489 51.6451 51.8665 51.977 51.3519 51.9085C49.1764 51.8795 47.001 51.9013 44.8259 51.894C44.601 51.894 44.304 51.9811 44.1807 51.7271C44.0501 51.4664 44.3249 51.2997 44.4555 51.1183ZM38.9009 65.9685C39.1765 62.8445 39.9428 59.7831 41.1711 56.8973C42.418 54.0839 41.8018 54.6638 44.753 54.613C46.6378 54.5767 48.5235 54.5985 50.4016 54.6057C51.2717 54.613 51.3301 54.6928 51.1266 55.5338C50.2832 58.8773 49.8089 62.304 49.7128 65.7509C49.6983 67.0852 49.5532 67.2013 48.2478 67.2013H40.0471C38.9158 67.1941 38.7848 67.0852 38.9009 65.9685ZM41.8236 81.551C40.2126 78.2475 39.2224 74.6766 38.9013 71.0154C38.7998 70.0582 38.9521 69.9131 39.9383 69.9131C41.3742 69.9059 42.8097 69.9131 44.2456 69.9131C45.6521 69.9131 47.059 69.9059 48.4654 69.9131C49.5024 69.9131 49.662 70.0147 49.691 71.1097C49.7418 72.4586 49.8502 73.807 50.0025 75.1486C50.2356 77.2066 50.597 79.2483 51.0835 81.2614C51.3369 82.2911 51.2793 82.3419 50.2134 82.3419C47.8498 82.3491 45.4857 82.3274 43.1216 82.3564C42.5571 82.4104 42.0263 82.0802 41.8236 81.551ZM54.6217 94.7484C50.7868 92.7112 47.4397 89.8662 44.8109 86.4098C44.543 86.0543 43.9771 85.6558 44.2238 85.2132C44.4342 84.8432 45.0648 85.0681 45.4996 85.0609C47.4139 85.0464 49.3286 85.0754 51.2357 85.0464C51.8347 84.9702 52.3906 85.3687 52.5116 85.96C53.607 89.2431 55.2738 92.3063 57.4352 95.0095C57.7761 95.4375 58.1747 95.8288 58.5447 96.2351C57.1618 95.9671 55.8351 95.4643 54.6217 94.7484ZM53.6356 69.9137C57.7761 69.9137 61.9167 69.9065 66.0635 69.9137C67.0424 69.9137 67.1004 69.9645 67.1004 70.9507V81.3055C67.1004 82.2917 67.0424 82.3424 66.0562 82.3424C64.2503 82.3497 62.4453 82.3424 60.6393 82.3424C58.7831 82.3424 56.9196 82.3279 55.0633 82.357C54.4177 82.3642 54.1497 82.1176 53.9829 81.4796C53.1091 78.0864 52.5945 74.611 52.4463 71.1103C52.3878 69.9282 52.4463 69.9137 53.6356 69.9137ZM67.1012 91.6376C67.1012 93.4648 67.1084 95.2994 67.1012 97.1342C67.1012 98.0768 67.0141 98.1276 66.0715 97.8665C63.2001 97.0689 61.1044 95.2054 59.3274 92.9139C57.691 90.753 56.3662 88.3731 55.3909 85.844C55.1733 85.3076 55.2603 85.0537 55.8983 85.0537C59.3791 85.061 62.86 85.061 66.3403 85.0537C66.942 85.0537 67.1088 85.3512 67.1088 85.8948C67.0943 87.809 67.1012 89.7233 67.1012 91.6376ZM67.1084 66.4037C67.1084 67.0489 66.7969 67.2085 66.2166 67.2085C64.0702 67.1868 61.9169 67.2013 59.7705 67.2013C57.6458 67.2013 55.5212 67.1795 53.4037 67.2085C52.6787 67.223 52.3957 66.9691 52.432 66.2441C52.5716 62.5312 53.1189 58.845 54.0639 55.2518C54.1301 54.8419 54.5073 54.5572 54.9194 54.6066C58.719 54.6139 62.5136 54.6139 66.3036 54.6066C66.884 54.5994 67.1084 54.846 67.1084 55.4114C67.0944 59.0731 67.0944 62.737 67.1084 66.4037ZM66.1223 51.9087C62.7575 51.8797 59.386 51.887 56.0213 51.9015C55.3688 51.9087 55.1512 51.7637 55.4341 51.0822C56.8845 47.5003 58.7621 44.2081 61.692 41.6119V41.6128C62.9267 40.4761 64.4088 39.6419 66.0207 39.1763C66.9851 38.9078 67.0944 38.9949 67.1012 39.9738C67.1085 41.801 67.1012 43.6282 67.1012 45.4632C67.1012 47.2613 67.0795 49.0668 67.1157 50.8727C67.1307 51.6049 66.9126 51.916 66.1223 51.9087ZM95.1567 55.3678C96.8479 58.8621 97.8577 62.6477 98.1301 66.5206C98.1809 67.1585 97.7529 67.1948 97.3035 67.1948C95.7951 67.2021 94.2797 67.2021 92.7717 67.2021C91.3068 67.2021 89.8495 67.1803 88.3918 67.2093C87.6596 67.2238 87.3553 66.9772 87.3331 66.2014C87.2334 62.7306 86.7713 59.2797 85.9552 55.9046C85.6578 54.6573 85.6868 54.6065 86.9994 54.6065C89.3054 54.6065 91.6188 54.621 93.9248 54.5992C94.4625 54.5466 94.9672 54.8618 95.1567 55.3678ZM82.7566 42.4676C85.7301 44.1226 88.4106 46.2568 90.69 48.7835C91.4181 49.5928 92.0942 50.448 92.7131 51.3435C93.0105 51.7497 92.8655 51.9016 92.4084 51.8943C90.0951 51.8943 87.7891 51.8871 85.4762 51.9016C84.9036 51.9016 84.7149 51.5534 84.5408 51.1041C83.5973 48.4508 82.3233 45.9267 80.7485 43.5916C80.0743 42.6199 79.3126 41.7063 78.5662 40.7492C80.0335 41.1333 81.4422 41.7108 82.7566 42.4676ZM69.8064 70.7983C69.7992 70.0733 70.1184 69.8992 70.7708 69.8992C72.9462 69.9282 75.1285 69.9137 77.304 69.9137C79.4577 69.9137 81.6113 69.921 83.7574 69.9065C84.33 69.9065 84.671 70.037 84.6207 70.7185C84.4565 73.6317 84.0888 76.5297 83.5193 79.3912C83.3597 80.1453 83.1493 80.8852 82.9902 81.6392C82.9712 81.8527 82.8655 82.0482 82.6982 82.1824C82.5314 82.3166 82.3174 82.3769 82.1051 82.3497C78.2838 82.3352 74.4598 82.3352 70.6339 82.3497C69.996 82.3569 69.8074 82.074 69.8074 81.4796C69.8214 77.919 69.8282 74.3588 69.8064 70.7983ZM69.8137 66.165V55.651C69.8209 54.7156 69.9293 54.6141 70.8864 54.6068C74.5268 54.6068 78.1595 54.6213 81.7999 54.5996C82.0851 54.551 82.3785 54.6236 82.6079 54.7995C82.8378 54.9759 82.9838 55.2393 83.0114 55.5277C83.8439 58.7373 84.3394 62.0253 84.4904 65.3384C84.5557 67.2019 84.5847 67.2019 82.6777 67.2019H70.894C69.9296 67.1946 69.8209 67.0931 69.8137 66.165ZM69.8137 45.4486C69.8137 43.6214 69.8064 41.7869 69.8137 39.9597C69.8209 38.988 69.9583 38.8719 70.9014 39.1476C73.2252 39.8558 75.2904 41.2292 76.8406 43.099C78.8719 45.4899 80.476 48.2126 81.5827 51.1479C81.8512 51.8221 81.6408 51.9092 81.0391 51.9019C77.6235 51.8874 74.2013 51.8801 70.7785 51.9092C70.0608 51.9164 69.7923 51.6698 69.7996 50.9375C69.8359 49.1103 69.8137 47.2758 69.8137 45.4486ZM75.4405 95.3001C74.0826 96.5342 72.4612 97.4419 70.6988 97.9538C70.0028 98.1642 69.7997 97.9248 69.807 97.2433C69.8287 95.3871 69.8142 93.5309 69.8142 91.6745C69.8142 89.8183 69.836 87.9621 69.807 86.1058C69.7925 85.3735 70.0241 85.0398 70.8076 85.0471C74.1724 85.0689 77.5439 85.0543 80.9086 85.0616C81.7352 85.0616 81.844 85.2357 81.5688 85.9317C80.2748 89.4845 78.1773 92.6902 75.4405 95.3001ZM92.6111 85.8443C89.9441 89.5667 86.4466 92.6154 82.3945 94.7487C81.0951 95.4751 79.7217 96.0609 78.2975 96.4966C79.8382 94.7628 81.1917 92.8721 82.3365 90.855C83.2052 89.2459 83.9447 87.5705 84.5483 85.8444C84.6589 85.3366 85.1336 84.9929 85.6505 85.0469C87.855 85.0686 90.0517 85.0541 92.2562 85.0614C92.4811 85.0614 92.7853 84.9671 92.9018 85.2355C93.0179 85.4967 92.7422 85.6558 92.6121 85.8444L92.6111 85.8443ZM98.0933 70.7469C97.8239 74.4866 96.8395 78.1396 95.1933 81.508C95.0011 82.0707 94.4429 82.4239 93.8516 82.3563C92.6623 82.3128 91.4657 82.3418 90.2697 82.3418C89.0224 82.3418 87.7751 82.3345 86.535 82.349C85.926 82.3563 85.7229 82.1242 85.868 81.5152C86.4674 79.1239 86.8795 76.6902 87.1008 74.2349C87.2019 73.0746 87.3035 71.9144 87.3402 70.7541C87.3547 70.1452 87.5719 69.8986 88.1885 69.9058C91.2414 69.9203 94.2919 69.9203 97.3397 69.9058C97.9486 69.9058 98.144 70.0654 98.0933 70.7469Z" fill="#007AFF" stroke="#007AFF"></path> </svg> 