<?xml version="1.0" encoding="UTF-8"?> <svg xmlns="http://www.w3.org/2000/svg" width="137" height="137" viewBox="0 0 137 137" fill="none"> <rect width="137" height="137" rx="68.5" fill="#007AFF"></rect> <path d="M53.2 98.1L54.2999 101.5L51.4 99.3L48.5 101.5L49.6 98L46.7 96H50.2999L51.4 92.6L52.5 96H56L53.2 98.1Z" fill="white"></path> <path d="M70 102.6L71.1 106L68.2 103.8L65.3 105.9L66.4 102.5L63.5 100.5L67.1 100.4L68.2 97.1L69.3 100.4H72.8L70 102.6Z" fill="white"></path> <path d="M98.9999 85.9L100.1 89.3L97.1999 87.1L94.2999 89.2L95.3998 85.8L92.5999 83.7H96.0999L97.1999 80.4L98.2999 83.7H101.8L98.9999 85.9Z" fill="white"></path> <path d="M86.7001 98.1L87.9 101.5L85.0001 99.3L82 101.5L83.1001 98L80.3 96H83.8L85.0001 92.6L86.0001 96H89.5001L86.7001 98.1Z" fill="white"></path> <path d="M40.9 85.9L42.1 89.3L39.2 87.1L36.2 89.2L37.3 85.8L34.5 83.7H38L39.2 80.4L40.2 83.7H43.7L40.9 85.9Z" fill="white"></path> <path d="M36.4 69.1L37.6 72.5L34.7 70.3L31.7 72.4L32.8 69L30 67L33.5 66.9L34.7 63.6L35.7 66.9H39.2L36.4 69.1Z" fill="white"></path> <path d="M53.2 40.1L54.2999 43.5L51.4 41.2999L48.5 43.5L49.6 40.1L46.7 38H50.2999L51.4 34.7L52.5 38H56L53.2 40.1Z" fill="white"></path> <path d="M40.9 52.3L42.1 55.7L39.2 53.5L36.2 55.7L37.3 52.3L34.5 50.2H38L39.2 46.9L40.2 50.2H43.7L40.9 52.3Z" fill="white"></path> <path d="M70 35.5L71.1 38.9L68.2 36.7L65.3 38.8L66.4 35.4L63.5 33.4L67.1 33.3L68.2 30L69.3 33.3H72.8L70 35.5Z" fill="white"></path> <path d="M86.7001 40.1L87.9 43.5L85.0001 41.2999L82 43.5L83.1001 40.1L80.3 38H83.8L85.0001 34.7L86.0001 38H89.5001L86.7001 40.1Z" fill="white"></path> <path d="M103.6 69.1L104.7 72.5L101.9 70.3L98.8999 72.4L100 69L97.2 67L100.7 66.9L101.9 63.6L102.9 66.9H106.4L103.6 69.1Z" fill="white"></path> <path d="M98.9999 52.3L100.1 55.7L97.1999 53.5L94.2999 55.7L95.3998 52.3L92.5999 50.2H96.0999L97.1999 46.9L98.2999 50.2H101.8L98.9999 52.3Z" fill="white"></path> <path d="M53.2 98.1L54.2999 101.5L51.4 99.3L48.5 101.5L49.6 98L46.7 96H50.2999L51.4 92.6L52.5 96H56L53.2 98.1Z" stroke="white" stroke-miterlimit="10"></path> <path d="M70 102.6L71.1 106L68.2 103.8L65.3 105.9L66.4 102.5L63.5 100.5L67.1 100.4L68.2 97.1L69.3 100.4H72.8L70 102.6Z" stroke="white" stroke-miterlimit="10"></path> <path d="M98.9999 85.9L100.1 89.3L97.1999 87.1L94.2999 89.2L95.3998 85.8L92.5999 83.7H96.0999L97.1999 80.4L98.2999 83.7H101.8L98.9999 85.9Z" stroke="white" stroke-miterlimit="10"></path> <path d="M86.7001 98.1L87.9 101.5L85.0001 99.3L82 101.5L83.1001 98L80.3 96H83.8L85.0001 92.6L86.0001 96H89.5001L86.7001 98.1Z" stroke="white" stroke-miterlimit="10"></path> <path d="M40.9 85.9L42.1 89.3L39.2 87.1L36.2 89.2L37.3 85.8L34.5 83.7H38L39.2 80.4L40.2 83.7H43.7L40.9 85.9Z" stroke="white" stroke-miterlimit="10"></path> <path d="M36.4 69.1L37.6 72.5L34.7 70.3L31.7 72.4L32.8 69L30 67L33.5 66.9L34.7 63.6L35.7 66.9H39.2L36.4 69.1Z" stroke="white" stroke-miterlimit="10"></path> <path d="M53.2 40.1L54.2999 43.5L51.4 41.2999L48.5 43.5L49.6 40.1L46.7 38H50.2999L51.4 34.7L52.5 38H56L53.2 40.1Z" stroke="white" stroke-miterlimit="10"></path> <path d="M40.9 52.3L42.1 55.7L39.2 53.5L36.2 55.7L37.3 52.3L34.5 50.2H38L39.2 46.9L40.2 50.2H43.7L40.9 52.3Z" stroke="white" stroke-miterlimit="10"></path> <path d="M70 35.5L71.1 38.9L68.2 36.7L65.3 38.8L66.4 35.4L63.5 33.4L67.1 33.3L68.2 30L69.3 33.3H72.8L70 35.5Z" stroke="white" stroke-miterlimit="10"></path> <path d="M86.7001 40.1L87.9 43.5L85.0001 41.2999L82 43.5L83.1001 40.1L80.3 38H83.8L85.0001 34.7L86.0001 38H89.5001L86.7001 40.1Z" stroke="white" stroke-miterlimit="10"></path> <path d="M103.6 69.1L104.7 72.5L101.9 70.3L98.8999 72.4L100 69L97.2 67L100.7 66.9L101.9 63.6L102.9 66.9H106.4L103.6 69.1Z" stroke="white" stroke-miterlimit="10"></path> <path d="M98.9999 52.3L100.1 55.7L97.1999 53.5L94.2999 55.7L95.3998 52.3L92.5999 50.2H96.0999L97.1999 46.9L98.2999 50.2H101.8L98.9999 52.3Z" stroke="white" stroke-miterlimit="10"></path> </svg> 